<svg xmlns="http://www.w3.org/2000/svg" viewBox="0 0 640 640">
  <path d="M331.601 110.128c0-2.939-.034-5.424 0-7.905.069-3.726 1.568-5.235 5.213-5.241h25.832c3.587 0 5.074 1.458 5.08 4.966v26.119c0 3.507-1.51 5.034-5.046 5.046q-12.916.034-25.832 0c-3.623 0-5.166-1.59-5.247-5.276V120.634c-5.241 0-10.332-.041-15.499.058-.643 0-1.234 1.005-1.912 1.096-1.493.201-3.301.666-4.477.051-4.334-2.261-8.759-.976-13.128-.734-.895.046-2.072 1.423-2.503 2.446-3.875 9.156-7.612 18.369-11.01 26.657 1.723 1.969 3.473 3.294 4.225 5.051.39.907-.671 3.376-1.602 3.714-1.682.62-3.759.172-6.228.172-.396.936-1.2 2.635-1.82 4.403a3.18 3.18 0 0 0 .116 2.082l-.007-.021c1.321 3.209.729 4.748-2.474 6.354a3.477 3.477 0 0 0-1.634 1.352l-.008.014c-3.886 9.345-7.697 18.73-11.429 27.852 1.723.196 3.364.126 4.816.649.798.287 1.567 1.493 1.774 2.411.511 2.233-.424 3.898-2.652 4.713-2.383.873-4.104-.109-5.608-3.49-1.056 2.469-2.038 4.65-2.87 6.888a1.678 1.678 0 0 0 .345 1.501l-.002-.003c1.723 1.486 2.681 3.41 1.223 5.224-1.148 1.406-3.151 2.089-4.782 3.094l-.528-.671q-8.346 20.332-16.693 40.676c3.444 1.883 4.54 4.07 3.398 6.389-1.062 2.141-3.398 2.658-6.533 1.343-.901 3.054-3.444 5.567-2.043 9.334.328.878-1.355 2.577-2.239 3.812-.511.712-1.561 1.148-1.878 1.894-3.731 8.926-7.365 17.893-11.142 27.134 2.87-.184 5.247.695 5.499 3.576.114 1.274-1.011 3.082-2.118 3.944-2.026 1.578-3.921.356-5.912-1.659-.528 3.415-3.8 5.7-1.722 9.632.993 1.888-.264 3.726-2.331 4.885a6.976 6.976 0 0 0-2.892 2.935l-.019.039c-3.708 8.719-7.232 17.519-10.712 26.038 1.981.322 3.886.431 5.637 1.011.632.206 1.107 1.504 1.274 2.377a4.152 4.152 0 0 1-3.14 4.719l-.028.006c-2.354.499-4.282-1.188-5.166-4.656-1.251 3.037-2.44 5.918-3.875 9.386.396.235 1.326.465 1.481.947.465 1.441 1.24 3.255.729 4.409s-2.371 2.296-3.731 2.422-1.859.442-2.336 1.613c-5.304 13.065-10.659 26.119-15.872 38.85 1.331 1.394 2.687 2.514 3.611 3.914.385.574.063 1.866-.293 2.669-1.108 2.503-3.048 2.927-6.636 1.556-1.016 3.214-3.789 5.889-2.21 9.896.351.889-1.309 2.658-2.199 3.909-.448.632-1.567.889-1.842 1.544-3.696 8.822-7.302 17.686-11.039 26.796 2.652 0 4.976.213 5.494 3.158a3.921 3.921 0 0 1-2.157 4.513l-.024.01c-2.405 1.28-3.955-.167-5.637-1.82-.775 1.814-1.624 3.49-2.181 5.252a3.763 3.763 0 0 0 .286 2.554l-.01-.022c1.539 3.168.516 5.631-2.824 6.572-.574.167-1.389.465-1.584.919-1.521 3.548-2.921 7.147-4.454 10.976h11.974c-1.723-2.411-2.244-4.862.206-6.446a5.468 5.468 0 0 1 2.588-.642c.767 0 1.497.156 2.161.438l-.036-.014c2.652 1.372 1.883 3.944 1.028 6.262h12.164c-.746-2.526-1.423-5.029 1.148-6.315a5.375 5.375 0 0 1 2.041-.395c.884 0 1.718.21 2.457.582l-.031-.014c2.239 1.274 2.348 3.512.856 5.942h12.192c-1.148-2.233-1.36-4.592 1.05-5.959a5.439 5.439 0 0 1 2.389-.543c.749 0 1.463.149 2.114.419l-.037-.014c2.572 1.268 1.906 3.777 1.303 5.936h11.09c.333-1.941.132-3.904 1.011-5.022s2.87-1.435 5.011-2.399c5.206-12.813 10.741-26.405 16.32-40.142-2.377-1.321-4.517-2.87-3.197-6.016 1.258-2.979 3.794-2.606 6.854-1.912.781-3.123 1.549-6.194 2.296-9.259a8.064 8.064 0 0 1 .549-1.658l-.021.051c1.825-3.599 3.817-7.118 5.476-10.792 1.251-2.772 3.031-4.018 6.142-4.053q73.729-.856 147.469-1.917c11.681-.189 10.333-.046 14.351 8.943 8.611 19.149 17.221 38.265 25.716 57.455.982 2.21 2.164 2.916 4.466 2.79 3.341-.189 6.693-.104 10.046-.034s4.959 1.665 4.983 4.971q.104 13.203 0 26.405c0 3.329-1.647 4.736-5.074 4.736H420.8c-3.444 0-4.868-1.435-4.874-4.816v-24.965c0-5.034.85-5.993 6.091-6.544-2.096-4.73-4.132-9.374-6.211-14.001-6.257-13.949-12.577-27.869-18.748-41.859-.873-1.986-1.912-2.601-4.018-2.566q-60.273.947-120.494 1.723c-7.273.097-14.546.138-21.814 0-2.296-.046-3.313.769-4.139 2.824q-14.85 36.818-29.849 73.579c-1.779 4.374-2.962 5.097-7.75 5.166q-37.582.465-75.169.982c-.942 0-1.888.092-3.663.184 4.34 4.018 8.111 7.721 12.094 11.177 19.318 16.924 41.452 31.329 65.47 42.329l1.691.694c17.016 7.876 36.853 14.342 57.549 18.414l1.69.277c3.714.712 5.608 3.209 4.937 6.653-.574 2.985-3.231 4.432-6.808 3.754-43.741-8.266-83.286-26.061-118.331-53.384Q70.96 485.555 47 389.984c-1.108-4.409-1.992-8.88-2.921-13.329-.677-3.226 1.102-6.315 3.944-6.957 2.933-.683 5.528 1.148 6.452 4.592 3.376 12.514 6.136 25.258 10.206 37.519 10.252 30.94 26.193 58.821 47.036 83.883 3.961 4.764 8.088 9.397 12.433 14.437 2.652-6.418 5.121-12.341 7.554-18.283q58.97-144.081 117.952-288.163 18.22-44.516 36.503-88.974c1.521-3.708 2.697-4.472 6.682-4.477l35.59-.051zm8.215-.108h8.077c3.571.041 6.171 2.371 6.056 5.384s-2.503 5.063-6.028 5.08h-8.093v4.414h19.678v-19.752h-19.689zm84.956 387.993-.614.54v19.614h19.672v-19.793h-6.228c.884 2.026 1.723 3.806 2.446 5.614 1.2 2.921.063 6.125-2.543 7.261s-5.741-.041-7.147-2.956c-1.321-2.732-2.457-5.545-3.794-8.266-.373-.775-1.16-1.349-1.762-2.014z"/>
  <path d="M537.236 258.183c1.607-1.722 2.83-3.209 4.219-4.518 2.084-1.963 4.277-2.004 6.315 0q10.906 10.608 21.676 21.331c2.296 2.296 2.187 4.661-.126 7.002q-27.151 27.433-54.326 54.826c-2.813 2.836-4.931 2.79-7.807-.034q-9.925-9.758-19.844-19.517c-3.594-3.536-3.628-5.356-.092-8.851.947-.93 2.072-1.67 3.668-2.933-3.444-2.451-6.016-4.707-8.949-6.348-14.224-7.973-29.666-13.036-44.924-18.559-5.765-2.104-10.72-4.556-15.356-7.469l.333.196c-5.942-3.708-9.185-9.758-11.785-16.136q-22.197-54.711-44.378-109.428c-1.888-4.667-1.682-5.792 1.849-9.362.74-.752 1.527-1.458 2.222-2.239 2.176-2.44 4.592-2.87 7.687-1.631 36.198 14.449 72.328 29.034 108.692 43.053 13.116 5.063 21.411 13.644 25.631 26.979 3.809 11.827 7.506 21.33 11.662 30.583l-.756-1.881c3.163 7.279 7.261 14.156 11.061 21.141.677 1.28 1.957 2.261 3.329 3.794zM386.404 149.524c.706.878.861 1.148 1.062 1.321q27.554 27.261 55.038 54.532c1.211 1.205 2.038.982 3.393.396 6.28-2.738 12.198-1.722 17.313 2.629 4.627 3.909 6.452 9.265 5.384 15.183-1.415 7.709-8.081 13.472-16.093 13.472-9.029 0-16.349-7.319-16.349-16.349 0-2.278.466-4.446 1.307-6.415l-.041.107c.793-1.912.126-2.664-.999-3.771q-26.951-26.618-53.867-53.27c-.414-.407-.895-.746-1.647-1.36.088.487.191.9.318 1.303l-.02-.074q19.592 48.294 39.149 96.564c3.266 8.117 9.053 13.174 17.181 15.86 4.139 1.372 8.329 2.606 12.394 4.173 16.693 6.446 34.034 11.613 47.071 23.019l32.076-30.653c-3.484-5.436-6.997-10.201-9.758-15.367-7.624-14.27-13.008-29.505-18.157-44.774-2.939-8.725-8.433-14.512-17.048-17.857-22.106-8.582-44.097-17.445-66.134-26.187a11280.36 11280.36 0 0 0-31.572-12.479zm159.357 113.991-50.514 48.73 15.952 16.412c16.538-16.756 33.07-33.494 49.309-49.941zm-85.531-42.811c0-4.506-3.197-7.755-7.634-7.795-4.592-.034-7.922 3.26-7.922 7.842s3.266 7.801 7.956 7.761c4.517-.041 7.589-3.197 7.577-7.807zM264.789 357.921c-3.616-1.975-4.701-3.944-3.645-6.315.947-2.141 2.87-2.64 6.658-1.619 1.033-3.444 3.531-6.423 2.652-10.441-.161-.74.528-1.762 1.016-2.538.976-1.532 2.422-2.841 3.076-4.483 3.18-7.916 6.16-15.912 9.185-23.874-4.167-2.228-5.166-3.944-3.8-6.503 1.274-2.382 3.386-2.772 6.779-1.148l16.073-41.721c-4.248-2.096-5.476-4.07-4.133-6.63 1.251-2.383 3.778-2.703 7.096-.734 3.266-8.559 6.492-17.089 9.758-25.585 1.504-3.881 5.166-5.286 8.157-3.008 1.148.856 1.929 2.336 2.485 3.691q21.979 53.849 43.844 107.809c3.783 9.311 7.606 18.61 11.349 27.938 1.808 4.506-.626 7.973-5.516 8.036q-53.631.574-107.269 1.166c-4.277.051-5.821-.815-6.566-3.967a7.126 7.126 0 0 1 .29-3.615l-.015.05c.677-2.164 1.619-4.248 2.526-6.509zm56.043-115.84-45.923 119.238 93.94-1.091c-16.108-39.557-31.939-78.527-48.041-118.147zM370.595 599.783a5.47 5.47 0 0 1-5.535-4.707l-.003-.029a5.123 5.123 0 0 1 3.904-5.554l.034-.007c6.429-1.602 12.939-2.87 19.356-4.54 36.063-9.424 67.564-25.166 94.836-46.134l-.621.458q60.463-45.865 88.624-116.384c5.606-13.701 10.481-29.948 13.816-46.749l.288-1.74c.717-3.588 3.352-5.844 6.199-5.264 3.1.637 4.811 3.329 4.156 6.946-4.449 24.684-12.428 48.219-23.404 70.738-14.728 29.983-33.46 55.598-55.889 77.434l-.061.06q-57.484 56.002-135.919 73.659c-2.962.666-5.947 1.217-8.921 1.808a4.47 4.47 0 0 1-.878.004l.017.002z"/>
  <path d="M595.621 270.943c0 2.996-1.934 5.269-4.552 5.666a5.254 5.254 0 0 1-5.774-3.983l-.007-.036c-1.957-7.709-3.565-15.499-5.741-23.168-10.256-35.899-26.754-67.106-48.432-93.958l.391.5q-52.031-65.141-131.562-90.186c-9.471-2.968-19.248-4.954-28.92-7.251-3.72-.884-5.678-3.18-5.063-6.596.574-3.146 3.26-4.592 6.974-3.875 41.278 7.795 78.923 24.109 112.647 49.057q78.131 57.742 104.83 151.389c1.992 7.009 3.444 14.168 5.121 21.239a5.394 5.394 0 0 1 .085 1.211v-.01zM49.338 276.637h-.051a5.166 5.166 0 0 1-5.016-6.407l-.008.036c8.289-42.478 25.321-81.139 51.513-115.552 35.946-47.208 82.195-80.232 138.783-98.417 9.988-3.214 20.292-5.476 30.493-7.991 5.034-1.246 8.123.936 7.985 5.166-.086 2.623-1.688 4.426-4.593 4.994-59.646 11.868-110.87 42.008-148.931 84.245l-.214.242c-31.067 34.494-51.755 74.4-62.529 119.501-.752 3.134-1.268 6.315-1.917 9.477s-2.606 4.748-5.516 4.707zM45.705 325.408H8.392c-.666 0-1.343.046-2.004 0-2.962-.276-5.356-2.623-5.447-5.304s2.44-5.257 5.504-5.534c.574-.051 1.148 0 1.723 0 25.257 0 50.514-.046 75.738.092 2.225.108 4.242.914 5.858 2.203l-.02-.016c1.573 1.257 1.767 3.444.649 5.504-1.246 2.296-3.231 3.088-5.683 3.088H45.676zM315.517 594.938v-39.034c0-2.336.787-4.254 3.008-5.419 2.026-1.062 4.242-.987 5.523.614a10.158 10.158 0 0 1 2.209 5.794l.001.026c.167 17.496.097 35.016.097 52.495v24.109c0 2.491-.901 4.495-3.071 5.741-1.814 1.039-3.972 1.062-5.269-.483s-2.371-3.565-2.399-5.402c-.196-12.813-.098-25.631-.098-38.442zM315.517 40.711V6.843c0-4.076 2.13-6.784 5.339-6.843 3.082-.057 5.499 2.836 5.499 6.728v68.005c0 4.207-2.021 6.682-5.379 6.716s-5.453-2.388-5.453-6.596q-.017-17.066-.006-34.143zM601.091 314.535c10.603 0 21.239-.034 31.813 0 4.432 0 7.227 3.633 5.741 7.319-.792 2.077-2.768 3.526-5.082 3.526-.102 0-.204-.002-.305-.008l.014.001q-32.238.041-64.476 0c-3.243 0-5.884-2.698-5.798-5.511.092-2.968 2.778-5.31 6.315-5.321 10.574-.029 21.176-.006 31.778-.006zM180.981 485.022a4.07 4.07 0 0 1 4.018 3.974v.005a4.134 4.134 0 0 1-4.302 4.018h.008a4.25 4.25 0 0 1-4.064-4.007l-.001-.011c.012-2.141 2.043-4.03 4.34-3.978zM180.752 460.328a4.064 4.064 0 0 1 4.271 4.016v.002a4.141 4.141 0 0 1-4.012 4.018h-.062a4.254 4.254 0 0 1-4.249-4.055v-.009c-.023-2.043 1.906-3.926 4.052-3.973zM306.309 180.326c.002.046.002.101.002.156a4.115 4.115 0 0 1-4.053 4.115h-.003a4.019 4.019 0 0 1-3.972-4.018c-.046-2.296 1.854-4.334 4.018-4.311a4.256 4.256 0 0 1 4.006 4.049v.009zM185 439.571a4.145 4.145 0 0 1-4.144 4.1l-.109-.002h.005a4.297 4.297 0 0 1-4.103-3.969l-.001-.014c-.051-2.153 1.986-4.076 4.282-4.018h.025a4.047 4.047 0 0 1 4.044 3.896v.007zM227.444 431.609a4.377 4.377 0 0 1-4.202-4.224v-.007a4.218 4.218 0 0 1 4.135-3.904h.003c2.124 0 4.139 1.825 4.225 3.846.086 2.141-1.975 4.271-4.162 4.288zM348.121 418.986c-.041.002-.089.002-.138.002a4.121 4.121 0 0 1-4.121-4.069v-.002a3.973 3.973 0 0 1 3.972-3.967h.048-.003c2.296-.046 4.351 1.871 4.322 4.018a4.333 4.333 0 0 1-4.07 4.018l-.011.001zM274.376 410.949a4.07 4.07 0 0 1 4.2 3.775l.001.012v.058a4.19 4.19 0 0 1-4.101 4.19h-.004a4.306 4.306 0 0 1-4.242-4.143v-.007a4.234 4.234 0 0 1 4.141-3.886h.004zM180.919 410.949h.034a4.088 4.088 0 0 1 4.082 3.882v.009a4.197 4.197 0 0 1-4.196 4.144h-.024.001c-2.251-.034-4.271-2.101-4.15-4.248a4.264 4.264 0 0 1 4.233-3.789h.021-.001zM320.889 398.768a4.327 4.327 0 0 1 4.268 3.773l.002.022c.126 2.089-1.946 4.299-4.093 4.363a4.458 4.458 0 0 1-4.265-4.184l-.001-.012a4.234 4.234 0 0 1 4.081-3.961h.007zM227.323 406.926a4.406 4.406 0 0 1-4.064-4.374v-.001a4.189 4.189 0 0 1 4.252-3.777h-.004c2.118.041 4.093 1.957 4.093 3.973a4.47 4.47 0 0 1-4.267 4.179h-.009zM347.95 394.303a4.15 4.15 0 0 1-4.094-4.149l.002-.116v.006a4.021 4.021 0 0 1 4.193-3.794h-.008c2.147 0 4.099 1.849 4.144 3.892.051 2.152-2.009 4.179-4.236 4.162zM274.33 394.303c-2.239-.058-4.236-2.159-4.093-4.299a4.282 4.282 0 0 1 4.244-3.754h.039-.002.041a4.018 4.018 0 0 1 4.017 3.928v.004a4.202 4.202 0 0 1-4.201 4.122h-.049.002zM302.222 159.88a4.02 4.02 0 0 1-3.931-4.348l-.001.014c.069-2.118 2.009-4.018 4.018-3.984a4.286 4.286 0 0 1 3.972 4.397v-.006a4.059 4.059 0 0 1-4.056 3.926h-.002zM268.992 229.883c0 2.159-2.176 4.259-4.288 4.173-2.021-.092-3.863-2.112-3.858-4.225s1.888-4.122 3.909-4.167c2.136-.058 4.254 2.049 4.236 4.219zM287.561 229.992c-.063 2.089-2.049 4.087-4.018 4.059-2.118 0-4.242-2.239-4.15-4.328a4.599 4.599 0 0 1 4.12-4.051l.019-.002c2.096-.029 4.093 2.101 4.03 4.322zM306.309 229.894a4.018 4.018 0 0 1-8.036-.037v-.039.002a4.173 4.173 0 0 1 3.866-4.149l.014-.001a4.226 4.226 0 0 1 4.156 4.224v.001zM302.222 135.134c-2.377 0-4.018-1.82-3.932-4.294.075-2.106 2.033-4.018 4.018-3.984a4.308 4.308 0 0 1 3.974 4.293l-.001.104v-.005a3.961 3.961 0 0 1-4.064 3.886h.005zM246.271 299.84c2.296.086 3.932 1.986 3.806 4.443-.109 2.084-2.169 4.018-4.156 3.869a4.344 4.344 0 0 1-3.874-4.51v.009a4.136 4.136 0 0 1 4.121-3.813l.109.002h-.005zM250.083 279.301a4.25 4.25 0 0 1-3.864 4.161l-.016.001c-2.147.063-4.167-1.998-4.162-4.23a4.174 4.174 0 0 1 4.239-4.121h-.003a4.054 4.054 0 0 1 3.808 4.045l-.002.153v-.007zM268.992 254.566a4.418 4.418 0 0 1-4.258 4.185h-.007c-2.021-.069-3.881-2.078-3.881-4.191a4.261 4.261 0 0 1 3.864-4.178l.017-.001a4.428 4.428 0 0 1 4.265 4.173l.001.012zM287.567 254.578c0 2.084-1.934 4.122-3.938 4.179-2.089.058-4.282-2.106-4.265-4.214s2.216-4.23 4.317-4.15a4.297 4.297 0 0 1 3.886 4.18v.005zM297.124 143.141c.034 2.296-1.9 4.317-4.059 4.265a4.268 4.268 0 0 1-3.955-4.109v-.007a4.11 4.11 0 0 1 4.086-4.231h.001a4.059 4.059 0 0 1 3.926 4.056v.026-.002zM293.261 163.795a4.02 4.02 0 0 1 3.863 4.414l.002-.017c-.104 2.101-2.113 4.018-4.122 3.914a4.287 4.287 0 0 1-3.886-4.47v.009a4.021 4.021 0 0 1 4.015-3.854l.136.002h-.007zM199.482 485.022c2.474-.041 4.093 1.556 4.076 4.018a3.864 3.864 0 0 1-3.86 4.018h-.009.001c-.038.002-.082.002-.126.002a4.018 4.018 0 0 1-4.018-4.018v-.056.002l-.001-.063a3.904 3.904 0 0 1 3.904-3.904h.037-.002zM175.425 476.808a4.318 4.318 0 0 1-4.184 4.167h-.007a3.943 3.943 0 0 1-3.921-3.943l.001-.078v.004c-.051-2.405 1.406-3.977 3.766-4.059a4.087 4.087 0 0 1 4.345 3.901v.008zM203.558 464.553a3.916 3.916 0 0 1-3.912 3.792c-.063 0-.126-.002-.189-.004h.008a4.055 4.055 0 0 1-3.915-4.33l-.001.012c.121-2.228 1.831-3.749 4.156-3.702 2.474.069 3.967 1.704 3.851 4.23zM250.089 254.544v.002a4.225 4.225 0 0 1-3.812 4.205l-.017.002c-2.164.097-4.202-1.923-4.219-4.173a4.196 4.196 0 0 1 4.184-4.179h.001a4.102 4.102 0 0 1 3.864 4.092v.056-.003zM293.014 188.524a3.914 3.914 0 0 1 4.11 3.831v.004c.104 2.296-1.722 4.368-3.875 4.449-2.014.075-4.018-1.825-4.133-3.932a3.982 3.982 0 0 1 3.894-4.35h.003zM311.946 418.986a3.972 3.972 0 0 1-4.138-4.131v.007a3.822 3.822 0 0 1 3.996-3.919h-.008a4.306 4.306 0 0 1 4.251 3.75l.002.022c.138 2.106-1.894 4.225-4.104 4.271zM287.561 205.09a4.296 4.296 0 0 1-3.786 4.258l-.02.002c-2.096.143-4.328-1.929-4.391-4.07s2.072-4.294 4.191-4.288c2.004-.023 3.961 1.975 4.007 4.099zM306.309 205.222a4.018 4.018 0 1 1-4.115-4.255h.005a4.186 4.186 0 0 1 4.111 4.184l-.001.073v-.003zM357.059 398.768h.005a4.214 4.214 0 0 1 4.196 3.824l.001.017c.092 2.13-1.992 4.299-4.132 4.317s-4.282-2.136-4.236-4.236c.046-2.004 2.061-3.904 4.167-3.921zM278.567 217.145c.086 2.089-2.043 4.334-4.132 4.351-1.963 0-4.053-1.963-4.208-3.984s1.969-4.23 4.15-4.254a4.295 4.295 0 0 1 4.189 3.868l.002.018zM320.993 374.028c2.077 0 4.122 1.946 4.179 3.938.058 2.089-2.101 4.282-4.214 4.277s-4.236-2.204-4.156-4.317a4.332 4.332 0 0 1 4.185-3.897h.006zM260.863 304.043a4.018 4.018 0 0 1 3.777-4.19l.011-.001.06-.001a4.288 4.288 0 0 1 4.279 4.006l.001.012a4.406 4.406 0 0 1-4.174 4.265l-.011.001c-2.004.006-3.909-1.981-3.944-4.093zM231.605 377.931c.08 2.089-2.055 4.294-4.173 4.311-2.021 0-4.018-1.917-4.167-4.018s1.722-4.053 3.846-4.191 4.385 1.774 4.495 3.897zM240.973 340.728a3.984 3.984 0 0 1-3.978 4.202h-.043.002a4.353 4.353 0 0 1-4.074-4.003l-.001-.015-.001-.072a4.018 4.018 0 0 1 4.175-4.015h-.007c2.387.034 3.904 1.521 3.926 3.904zM274.364 312.141l.119-.002a4.093 4.093 0 0 1 4.081 3.783l.001.014v.006a4.31 4.31 0 0 1-4.076 4.304l-.011.001a4.381 4.381 0 0 1-4.253-4.175v-.009c.034-2.021 2.026-3.892 4.139-3.921zM250.083 328.748c0 2.124-1.894 4.076-3.921 4.104-2.147.034-4.15-2.038-4.122-4.259v-.008a4.018 4.018 0 0 1 4.289-4.009l-.012-.001c2.239.104 3.794 1.82 3.766 4.173zM278.567 241.966c0 2.124-2.141 4.277-4.242 4.225a4.55 4.55 0 0 1-4.108-4.056l-.002-.019c-.08-2.078 2.055-4.15 4.259-4.127a4.267 4.267 0 0 1 4.092 3.965l.001.014zM227.346 324.564a4.535 4.535 0 0 1 4.246 3.885l.002.024c.132 2.021-2.026 4.328-4.104 4.385s-4.288-2.181-4.254-4.254 2.061-4.007 4.11-4.041zM297.124 241.995c0 2.251-1.963 4.271-4.104 4.196a4.31 4.31 0 0 1-3.909-4.131v-.007c0-2.451 1.653-4.087 4.132-4.018 2.365.023 3.869 1.567 3.881 3.961zM268.992 328.668c0 2.176-2.124 4.259-4.248 4.196-2.014-.063-3.875-2.067-3.886-4.185a4.018 4.018 0 0 1 3.837-4.121h.017a4.281 4.281 0 0 1 4.278 4.101v.008zM311.711 163.795c2.124-.086 4.34 2.009 4.346 4.11 0 1.957-1.998 4.064-4.018 4.196s-4.236-1.986-4.265-4.156a4.238 4.238 0 0 1 3.924-4.149l.014-.001zM255.553 320.247a4.102 4.102 0 0 1-3.782-4.465l-.001.016c.138-2.371 1.694-3.737 4.15-3.645h.026a3.869 3.869 0 0 1 3.866 4.026v-.008a4.285 4.285 0 0 1-4.258 4.076h-.001zM166.246 488.874v.036a4.138 4.138 0 0 1-3.802 4.125l-.014.001a3.79 3.79 0 0 1-4.228-3.764l.002-.141v.007c-.051-2.457 1.321-3.989 3.674-4.116a4.046 4.046 0 0 1 4.368 3.842v.009zM274.577 262.729a4.157 4.157 0 0 1 4.018 4.011v.007c-.034 2.176-2.181 4.236-4.311 4.133a4.53 4.53 0 0 1-4.017-4.117l-.001-.016c-.058-2.106 2.072-4.076 4.311-4.018zM287.579 180.482a4.309 4.309 0 0 1-3.934 4.138l-.016.001c-2.13.046-4.288-2.089-4.265-4.208s2.233-4.254 4.317-4.156 3.898 2.141 3.898 4.225zM162.285 468.353a3.789 3.789 0 0 1-4.082-3.772c-.114-2.595 1.314-4.185 3.822-4.248a4.018 4.018 0 0 1 4.219 3.982v.002a4.17 4.17 0 0 1-3.951 4.035h-.01zM171.366 448.187a4.078 4.078 0 0 1 4.059 3.919v.007a4.33 4.33 0 0 1-4.178 4.179h-.007a4.018 4.018 0 0 1-3.932-4.342l-.001.014c.075-2.336 1.67-3.817 4.059-3.777zM240.973 365.555a3.93 3.93 0 0 1-3.871 4.063h-.003a4.318 4.318 0 0 1-4.236-4.106v-.01a4.089 4.089 0 0 1 4.305-3.96l-.01-.001c2.377.063 3.841 1.596 3.817 4.012zM218.344 443.669a3.87 3.87 0 0 1-4.058-4.164l-.001.014c.041-2.348 1.607-3.869 4.018-3.881a4.283 4.283 0 0 1 4.206 3.791l.002.019c.092 2.141-1.923 4.191-4.167 4.219zM203.558 439.674l.001.086a3.932 3.932 0 0 1-3.903 3.932H199.613a4.07 4.07 0 0 1-4.07-4.07l.001-.072v.003l-.001-.078a3.811 3.811 0 0 1 3.975-3.809h-.008c2.532-.046 4.076 1.486 4.047 4.007zM274.497 188.496c2.033 0 4.076 2.049 4.099 4.059s-2.193 4.311-4.248 4.259c-1.951-.051-4.018-2.141-4.116-4.104-.069-2.061 2.136-4.265 4.265-4.214zM236.909 320.247a4.343 4.343 0 0 1-4.018-4.311v-.001a4.056 4.056 0 0 1 4.191-3.795h-.007c2.509 0 4.018 1.641 3.914 4.196a4.02 4.02 0 0 1-4.016 3.909l-.068-.001h.003zM260.858 279.187a4.146 4.146 0 0 1 3.922-4.064l.01-.001a4.388 4.388 0 0 1 4.19 4.241v.007a4.47 4.47 0 0 1-4.035 4.103l-.017.002c-2.084.058-4.099-2.038-4.07-4.288zM260.858 377.931v-.051a3.833 3.833 0 0 1 4.027-3.829h-.009.024a4.104 4.104 0 0 1 4.104 4.104l-.001.085v-.004a4.431 4.431 0 0 1-4.103 4.018l-.014.001c-2.199.006-4.076-2.004-4.03-4.322zM307.785 192.565a4.267 4.267 0 0 1 4.006-4.069l.012-.001c2.147-.034 4.317 2.096 4.265 4.196a4.599 4.599 0 0 1-4.049 4.114l-.021.002c-2.101.08-4.219-2.049-4.214-4.242zM287.561 279.1c.063 2.21-1.946 4.38-4.018 4.363a4.557 4.557 0 0 1-4.159-3.997l-.002-.022c-.114-2.118 1.951-4.283 4.127-4.328a4.22 4.22 0 0 1 4.052 3.972l.001.011zM307.808 143.331a4.306 4.306 0 0 1 3.798-4.263l.02-.002c2.061-.143 4.346 1.941 4.426 4.018s-2.13 4.305-4.191 4.305-3.989-1.998-4.052-4.059zM293.067 410.949c2.538 0 4.081 1.498 4.059 4.018v.002a4.018 4.018 0 0 1-3.897 4.016h-.012a4.104 4.104 0 0 1-4.104-4.104v-.048.003a3.777 3.777 0 0 1 3.964-3.887h-.008zM199.626 386.255c2.554 0 4.018 1.561 3.932 4.139a4.02 4.02 0 0 1-4.016 3.909h-.002a4.17 4.17 0 0 1-3.984-4.011v-.007c-.051-2.446 1.573-4.053 4.07-4.03zM240.973 291.499v.007a4.059 4.059 0 0 1-3.919 4.056h-.007a4.33 4.33 0 0 1-4.185-4.178v-.007a4.02 4.02 0 0 1 4.342-3.944l-.014-.001c2.342.069 3.822 1.688 3.783 4.064zM237.07 386.249c2.428.034 3.892 1.504 3.904 3.921s-1.722 4.191-4.07 4.132a4.298 4.298 0 0 1-4.018-4.006l-.001-.012a4.071 4.071 0 0 1 4.19-4.036h-.006zM259.813 415.031a4.198 4.198 0 0 1-4.353 3.949h.007a3.906 3.906 0 0 1-3.702-4.198l-.001.014c.058-2.537 1.607-3.949 4.219-3.841a3.95 3.95 0 0 1 3.829 4.083v-.007zM199.551 418.986a4.13 4.13 0 0 1-4.018-4.266v.007c.086-2.296 1.722-3.794 4.064-3.778 2.537 0 4.018 1.573 3.949 4.122a4.018 4.018 0 0 1-3.994 3.914h-.001zM297.124 390.232v.021a4.053 4.053 0 0 1-3.86 4.048H293.243a4.132 4.132 0 0 1-4.132-4.132c0-2.331 1.556-3.869 3.921-3.914 2.572-.046 4.099 1.435 4.093 3.978zM311.774 394.303a4.019 4.019 0 0 1-3.972-4.331l-.001.014c.104-2.296 1.779-3.771 4.167-3.731 2.13.034 4.076 1.918 4.081 3.938a4.348 4.348 0 0 1-4.273 4.11h-.003zM330.436 386.255c2.485-.046 3.989 1.326 4.087 3.714.097 2.479-1.504 4.277-3.863 4.334a4.288 4.288 0 0 1-4.23-4.101v-.008a4.018 4.018 0 0 1 4.006-3.938h.001zM289.111 217.357v-.029a4.018 4.018 0 0 1 8.036-.03v.002a4.278 4.278 0 0 1-3.798 4.2l-.019.002c-2.136.121-4.196-1.929-4.219-4.144zM274.014 295.558c-2.049-.247-3.921-2.417-3.771-4.374.172-2.296 2.422-4.018 4.874-3.691a4.1 4.1 0 0 1 3.445 4.216v-.008c-.218 2.244-2.417 4.087-4.546 3.858zM231.611 353.271c.057 2.038-2.159 4.294-4.214 4.282-1.963 0-4.018-2.038-4.144-4.018s1.767-4.018 3.892-4.156c2.216-.149 4.397 1.762 4.466 3.892zM227.478 299.834c1.986.046 4.093 2.13 4.127 4.076s-2.296 4.299-4.277 4.254-4.214-2.371-4.081-4.403a4.465 4.465 0 0 1 4.221-3.926h.01zM250.083 402.867a4.198 4.198 0 0 1-3.919 4.057l-.012.001a4.295 4.295 0 0 1-4.11-4.239v-.003c.041-2.371 1.825-4.018 4.294-3.909 2.382.086 3.783 1.641 3.749 4.093zM264.789 398.768l.114-.002a4.087 4.087 0 0 1 4.087 4.087v.007a4.408 4.408 0 0 1-4.001 4.057l-.017.001a4.145 4.145 0 0 1-4.093-4.144l.001-.072v.003a3.79 3.79 0 0 1 3.916-3.939h-.006zM287.561 402.672l.001.064a4.19 4.19 0 0 1-4.082 4.189h-.005a4.447 4.447 0 0 1-4.109-4.001l-.002-.017c-.092-2.152 1.923-4.139 4.196-4.139a3.87 3.87 0 0 1 4.001 3.866v.039-.002zM212.742 402.764a4.018 4.018 0 0 1-8.036 0c0-2.411 1.469-3.944 3.841-4.018 2.514-.034 4.202 1.578 4.196 4.018zM306.309 402.729c0 2.227-1.998 4.259-4.144 4.196a4.23 4.23 0 0 1-3.875-4.117v-.005c0-2.422 1.441-3.961 3.806-4.018 2.509-.086 4.202 1.51 4.214 3.944zM335.608 402.764c0-2.399 1.722-4.018 4.207-4.018 2.359.046 3.834 1.584 3.834 4.018a4.193 4.193 0 0 1-3.83 4.144l-.015.001a4.307 4.307 0 0 1-4.196-4.137v-.008zM193.988 402.735v.041a4.144 4.144 0 0 1-4.144 4.144 4.435 4.435 0 0 1-4.017-4.066l-.001-.015c-.051-2.152 1.986-4.104 4.259-4.076h.024a3.88 3.88 0 0 1 3.881 3.881l-.001.097v-.005zM255.669 287.441c2.463 0 4.191 1.676 4.144 4.052a4.337 4.337 0 0 1-4.004 4.069l-.014.001a4.11 4.11 0 0 1-4.065-4.11l.001-.097v.005c.063-2.428 1.527-3.904 3.938-3.921zM311.711 213.293c2.244-.063 4.351 1.9 4.34 4.018a4.51 4.51 0 0 1-3.998 4.159l-.02.002c-2.084.121-4.214-1.963-4.248-4.15v-.012a4.018 4.018 0 0 1 3.921-4.017h.005zM218.356 418.986a3.898 3.898 0 0 1-4.064-4.167l-.001.012c.029-2.342 1.596-3.869 3.984-3.881a4.284 4.284 0 0 1 4.212 3.78l.002.02c.109 2.118-1.9 4.202-4.132 4.236zM251.765 266.805c0-2.446 1.401-4.018 3.759-4.076 2.457-.08 4.259 1.567 4.288 3.926a4.334 4.334 0 0 1-4.123 4.224h-.01a4.198 4.198 0 0 1-3.914-4.07v-.006zM218.208 344.931a4.018 4.018 0 0 1-3.93-4.383l-.001.015c.104-2.296 1.767-3.777 4.144-3.72 2.124.051 4.059 1.946 4.053 3.967a4.372 4.372 0 0 1-4.26 4.122h-.005zM218.179 394.303a3.95 3.95 0 0 1-3.874-4.374l-.002.017c.121-2.296 1.722-3.749 4.156-3.691 2.112.051 4.018 1.963 4.018 3.984a4.36 4.36 0 0 1-4.297 4.064h-.002zM343.644 378.207a4.223 4.223 0 0 1-3.961 4.018l-.012.001a4.313 4.313 0 0 1-4.064-4.294v-.001c.063-2.371 1.878-4.018 4.328-3.886 2.348.126 3.759 1.728 3.708 4.162zM302.131 374.051c2.474-.063 4.191 1.59 4.179 4.018a4.317 4.317 0 0 1-3.874 4.171l-.019.002c-2.136.104-4.127-1.906-4.127-4.162 0-2.417 1.481-3.978 3.841-4.03zM330.545 410.949c2.457 0 3.932 1.418 3.984 3.829s-1.59 4.214-3.973 4.207a4.266 4.266 0 0 1-4.127-4.198v-.003a4.1 4.1 0 0 1 4.089-3.834h.027-.002zM259.813 340.86a4.267 4.267 0 0 1-4.259 4.07 4.02 4.02 0 0 1-3.789-4.152v.007c0-2.554 1.578-4.018 4.156-3.926h.025a3.87 3.87 0 0 1 3.867 4.008v-.007zM212.742 476.779v.001a4.196 4.196 0 0 1-4.1 4.195h-.005a4.112 4.112 0 0 1-3.914-4.014v-.004c0-2.463 1.366-3.949 3.766-4.018 2.526-.133 4.219 1.412 4.254 3.841zM250.083 378.034c0 2.251-1.946 4.277-4.087 4.202a4.339 4.339 0 0 1-3.949-4.106v-.01a3.904 3.904 0 0 1 4.163-4.07l-.012-.001c2.342.022 3.869 1.59 3.886 3.984zM190.051 423.481l.111-.002a3.829 3.829 0 0 1 3.827 3.957v-.006l.001.081a4.099 4.099 0 0 1-4.099 4.099h-.031.002a4.414 4.414 0 0 1-4.058-4.038l-.001-.015c-.063-2.147 1.975-4.093 4.248-4.076zM212.742 427.448a4.242 4.242 0 0 1-4.158 4.161h-.004a4.184 4.184 0 0 1-3.858-4.113v-.002c0-2.44 1.435-3.938 3.822-4.018 2.514-.051 4.196 1.533 4.196 3.973zM212.742 378.023c0 2.239-1.992 4.277-4.133 4.214a4.246 4.246 0 0 1-3.886-4.116v-.005c0-2.405 1.464-4.018 3.8-4.07 2.474-.075 4.208 1.561 4.219 3.977zM190.023 480.975a4.358 4.358 0 0 1-4.224-4.146v-.01a4.209 4.209 0 0 1 4.081-3.926h.006c2.382-.034 4.018 1.481 4.104 3.766a4.018 4.018 0 0 1-3.964 4.317h-.003zM255.606 238.006a3.955 3.955 0 0 1 4.237 3.945l-.001.077v-.004a4.373 4.373 0 0 1-3.884 4.178l-.019.002c-2.124.121-4.139-1.888-4.144-4.139-.041-2.411 1.464-4.007 3.812-4.059zM255.761 369.619h-.053a3.967 3.967 0 0 1-3.967-3.924v-.002c-.069-2.583 1.406-4.132 3.938-4.144a3.92 3.92 0 0 1 4.11 3.794v.035a4.247 4.247 0 0 1-4.019 4.242l-.011.001zM218.293 369.619h-.007a4.018 4.018 0 0 1-4.011-4.265l-.001.011c.057-2.296 1.722-3.834 4.059-3.817a4.226 4.226 0 0 1 4.149 3.859l.001.016c.069 2.118-1.986 4.191-4.191 4.196zM190.091 448.175l.078-.001a3.817 3.817 0 0 1 3.813 3.992v-.008l.001.07a4.065 4.065 0 0 1-4.168 4.062h.005a4.414 4.414 0 0 1-4.018-4.067l-.001-.014c-.034-2.141 2.021-4.076 4.288-4.036zM212.742 452.28a4.257 4.257 0 0 1-4.007 4.018l-.011.001a4.14 4.14 0 0 1-4.018-4.259v.006c.057-2.509 1.682-3.978 4.254-3.846h.043a3.754 3.754 0 0 1 3.739 4.096l.001-.014zM242.041 353.288v-.007a3.967 3.967 0 0 1 4.303-3.953l-.014-.001c2.296.097 3.789 1.723 3.754 4.139-.034 2.106-1.912 4.059-3.932 4.081-2.141.029-4.144-2.061-4.11-4.259zM204.717 353.34c0-2.382 1.549-3.961 3.886-4.018a3.858 3.858 0 0 1 4.138 4.075l.001-.01a4.326 4.326 0 0 1-3.904 4.144l-.018.002c-2.124.104-4.116-1.941-4.104-4.191zM297.124 266.844a4.244 4.244 0 0 1-3.954 4.017l-.012.001c-2.153 0-4.093-2.049-4.018-4.277.058-2.44 1.774-3.978 4.288-3.858 2.359.126 3.749 1.682 3.696 4.116zM218.219 460.328c2.232-.034 4.305 1.917 4.271 4.018a4.322 4.322 0 0 1-4.07 4.018l-.011.001a3.833 3.833 0 0 1-4.115-4.087l-.001.012a3.743 3.743 0 0 1 3.935-3.961h-.009zM366.646 410.949c2.572 0 4.064 1.498 4.018 4.07l.001.092a3.875 3.875 0 0 1-3.875 3.875h-.05.002a4.208 4.208 0 0 1-4.144-4.166v-.003a4.02 4.02 0 0 1 4.016-3.869h.033-.002zM287.549 378.103a4.225 4.225 0 0 1-3.912 4.137l-.014.001a4.423 4.423 0 0 1-4.259-4.156l-.001-.012c0-2.169 2.061-4.087 4.328-4.018a3.904 3.904 0 0 1 3.86 3.904l-.002.151v-.007zM255.64 394.303c-2.296-.041-3.972-1.878-3.869-4.311s1.556-3.766 4.018-3.737l.121-.002a3.897 3.897 0 0 1 3.897 3.897v.008a4.23 4.23 0 0 1-4.164 4.144h-.003zM236.886 410.949c2.463-.034 4.018 1.36 4.087 3.731.097 2.474-1.504 4.254-3.875 4.305a4.271 4.271 0 0 1-4.236-4.096v-.008a4.106 4.106 0 0 1 4.02-3.932h.004zM321.458 134.996c-2.801.23-4.357-1.314-4.535-3.686-.196-2.629 1.539-4.11 4.535-4.477zM321.355 159.776c-3.059-.172-4.46-1.774-4.46-4.018 0-2.411 1.602-3.886 4.271-4.139.082.417.145.919.176 1.43l.002.034c.017 2.169.012 4.362.012 6.693zM321.142 176.308v7.997c-2.532.213-3.696-1.217-4.208-3.284s.93-3.749 4.208-4.713zM320.993 209.109c-2.87-.126-4.076-1.808-4.099-3.886 0-2.256 1.378-3.806 4.099-4.087z"/>
</svg>
