<svg xmlns="http://www.w3.org/2000/svg" viewBox="0 0 640 640">
  <path d="M176.818 541.924c-5.05.483-9.746 1.064-14.453 1.349-25.547 1.542-50.711-.215-74.855-9.564-9.192-3.561-17.884-8.145-23.977-16.238-3.566-4.754-5.655-9.977-5.638-16.291.174-65.256.058-130.511.169-195.766v-.014c0-12.544 2.925-24.404 8.131-34.937l-.207.462c5.12-10.624 10.292-21.242 14.773-32.139 1.856-4.521 2.484-9.722 2.769-14.667.436-7.634.163-15.314.041-22.976a7.095 7.095 0 0 0-1.335-3.919l.014.021a18.06 18.06 0 0 1-3.876-11.218v-.091.004c0-9.501.099-19.002-.058-28.508-.128-7.86 3.834-13.382 9.699-17.891 8.087-6.179 17.506-9.454 27.304-11.531 25.564-5.422 50.961-5.091 75.944 3.194 8.145 2.7 15.767 6.498 21.393 13.341 3.491 4.229 4.724 9.053 4.521 14.545-.32 8.424-.215 16.872-.087 25.303a20.415 20.415 0 0 1-4.602 13.477l.029-.037a6.86 6.86 0 0 0-1.356 3.856v.012c-.14 6.784.047 13.579-.128 20.363a42.974 42.974 0 0 0 4.05 19.708l-.111-.264c3.758 8.145 7.593 16.25 11.502 24.593l21.858-11.328c4.754-2.467 5.934-2.327 9.728 1.356q16.994 16.523 33.96 33.081c.75.727 1.519 1.438 2.816 2.665v-3.596q0-70.981.081-141.961c0-1.774 1.111-3.927 2.38-5.265q30.649-32.261 61.473-64.353c3.491-3.642 7.064-7.209 10.374-10.996a7.551 7.551 0 0 0 1.849-4.469l.001-.023c.128-18.036.076-36.072.081-54.108 0-6.458 3.218-8.599 9.123-6.068q66.326 28.508 132.681 56.942c3.421 1.466 4.794 3.701 4.765 7.383-.122 13.282 0 26.566-.111 39.848 0 2.409.826 3.52 2.862 4.597 19.159 10.117 38.236 20.393 57.401 30.492 3.072 1.618 4.306 3.846 4.306 7.179q-.081 76.066-.093 152.13-.041 81.889-.064 163.766c0 9.466.646 8.308-7.319 12.962-36.246 21.213-72.313 42.739-108.483 64.08-1.902 1.122-2.816 2.263-2.618 4.532.221 2.601-.122 5.236.093 7.849.285 3.444-1.164 5.521-4.108 7.226q-30.364 17.576-60.595 35.374c-24.203 14.208-48.417 28.386-72.511 42.774-3.986 2.386-6.882 2.519-11.019-.081-10.81-6.784-22.062-12.858-33.163-19.2q-50.489-28.956-100.996-57.855c-3.165-1.804-4.654-4.072-4.474-7.692.209-3.758.064-7.522.064-11.421zm350.695-214.803-.058-.087-4.509 8.488c1.844.512 3.584 2.077 2.955 4.626a5.564 5.564 0 0 1-2.962 3.342l-.034.014c-2.845 1.059-4.329-1.111-5.504-3.549l-50.181 51.239h11.13c.401-.954.814-1.755 1.279-2.52l-.046.082c1.589-2.223 5.236-2.537 6.4-.192 1.234 2.432 2.909 2.281 4.946 2.176 1.746-.093 3.491.093 5.236-.169a4.395 4.395 0 0 0 2.607-1.478l.005-.006c1.746-2.263 4.986-3.031 6.4-.855 1.536 2.327 3.363 2.089 5.475 1.955 1.449-.093 2.909-.099 4.364-.105 1.542 0 2.828 0 3.951-1.634 1.454-2.077 4.072-1.774 6.12-.076a6.689 6.689 0 0 0 3.4 1.313l.028.002c1.624.174 3.287-.099 4.934-.145 2.082-.058 4.031.076 5.777-1.746 1.484-1.564 4.352-.797 5.609.983.483.661.773 1.489.773 2.386a4.068 4.068 0 0 1-1.919 3.457l-.017.01c-2.909 1.938-5.882 3.834-8.838 5.754 1.786 3.589 1.489 5.818-1.001 7.121s-4.404.302-6.551-3.491l-20.864 10.711a3.14 3.14 0 0 1 .086 1.238l.002-.016c-.616 1.507-.942 3.729-2.071 4.288-1.281.634-3.299-.262-5.004-.43-.919-.087-2.013-.378-2.752 0q-8.727 4.311-17.279 8.901c-.89.477-1.344 1.711-2.159 2.403-1.111.948-2.595 2.63-3.531 2.403-3.374-.814-5.713 1.048-8.285 2.391a9.624 9.624 0 0 0-1.799 1.622l-.01.012c.492.498 1.024.952 1.592 1.36l.037.025c3.136 1.909 3.078 5.475 0 7.522a4.115 4.115 0 0 0-1.604 2.779l-.002.019c-.174 4.166 0 8.337-.099 12.509 0 1.489.268 2.362 1.821 3.101a3.865 3.865 0 0 1 2.268 3.515 3.849 3.849 0 0 1-1.224 2.819l-.002.002a16.143 16.143 0 0 1-2.667 1.814l-.086.042v16.622c5.085 2.467 5.236 5.283.716 8.634-.518.378-.75 1.426-.763 2.17-.076 4.171 0 8.343-.052 12.509 0 1.513.07 2.548 1.797 3.392 2.81 1.361 3.223 5.347.582 6.633-3.363 1.647-2.217 3.979-2.252 6.778 4.882-2.909 9.396-5.486 13.818-8.238.651-.407.948-1.507 1.228-2.327.763-2.327 2.391-4.114 4.654-3.304 2.607.925 4.201-.25 6.063-1.349 4.002-2.368 8.006-4.719 11.996-7.086l17.14-10.194c-1.246-3.491-.832-5.667 1.361-6.719 2.665-1.281 4.654-.151 6.138 2.287 3.764-2.223 7.511-4.252 11.054-6.586 3.979-2.612 8.82-4.014 11.636-8.297.43-.646 1.746-.716 2.595-1.088 2.804-1.204 5.597-2.426 8.96-3.886-2.845-1.699-4.422-3.398-3.281-5.678a5.842 5.842 0 0 1 3.748-2.843l.039-.007c3.217-.419 3.956 2.327 4.602 5.05 1.618-.954 2.985-1.856 4.439-2.589 2.647-1.344 1.461-3.746 1.489-5.696 0-.669-1.234-1.564-2.089-1.996-2.327-1.164-3.386-4.108-1.792-6.103.884-1.111 2.415-1.711 3.939-2.723v-16.483c-2.484-.32-4.427-1.286-4.619-4.009-.221-3.194 2.06-4.229 4.654-4.777v-16.709a2.692 2.692 0 0 0-.564-.319l-.018-.007c-2.327-.442-4.014-1.647-4.072-4.184-.047-2.327 1.286-3.688 3.584-4.264a2.16 2.16 0 0 0 1.111-1.643l.001-.01c.087-5.114.047-10.234.047-15.424-2.589-.616-4.724-1.612-4.765-4.474-.047-3.031 2.327-3.939 4.771-4.626 0-5.074.081-10.019-.081-14.952 0-.774-1.164-1.519-1.781-2.263-.943-1.118-2.496-2.13-2.682-3.357s.763-2.845 1.624-3.967c.535-.698 1.844-.797 2.769-1.164v-16.895c-2.601-.308-4.463-1.391-4.591-4.072-.151-3.037 1.961-4.131 4.597-4.591V305.28c-2.42-.582-4.469-1.461-4.591-4.206-.116-2.519 1.321-3.863 3.701-4.469.538-.293.913-.826.983-1.452l.001-.009c.076-5.201.047-10.402.047-15.749-2.746-.337-4.608-1.484-4.742-4.142-.163-3.183 2.327-4.072 4.654-4.73v-16.872c-2.636-.326-4.619-1.414-4.654-4.271-.035-3.008 2.082-4.073 4.654-4.416v-17.099c-2.572-.215-4.451-1.262-4.654-3.962-.25-3.211 2.066-4.229 4.654-4.771V202.26c-2.467-.401-4.562-1.373-4.712-4.236-.169-3.24 2.444-3.991 4.619-4.794v-16.756c-2.49-.483-4.486-1.442-4.614-4.166-.145-3.177 2.199-4.171 4.654-4.736v-17.186l-15.394-4.451c-1.373 3.736-2.909 4.864-5.405 4.409-2.391-.43-3.31-2.135-3.293-6.248q-16.011-3.828-32.074-7.657c-2.135-.5-3.694 0-5.236 1.897q-32.43 39.376-65.011 78.626a4.529 4.529 0 0 0-1.161 2.479l-.002.023c-.116 4.248-.052 8.494-.052 12.748 2.368.686 4.154 1.699 4.213 4.334.07 2.775-1.804 3.834-4.219 4.498 0 5.236-.07 10.362.081 15.482 0 .71 1.199 1.338 1.746 2.082.849 1.164 2.205 2.426 2.24 3.671s-1.164 2.612-2.071 3.758c-.395.506-1.314.616-1.984.901 0 4.777 0 9.309.035 13.888 0 .681.285 1.746.768 1.978 4.817 2.519 9.704 4.916 14.952 7.564-.395-3.083-.081-5.388 2.781-6.126 2.077-.535 3.886.111 4.841 2.194 1.426 3.101-.582 4.748-3.555 6.586 4.021 1.426 7.442 2.624 10.845 3.874a8.851 8.851 0 0 1 2.026 1.106l-.026-.018c1.484 1.018 2.828 2.281 4.409 3.113 5.393 2.822 10.833 5.579 16.343 8.18 1.239.582 2.909.244 4.264.634 1.559.448 3.967.89 4.341 1.932.931 2.601 2.95 3.339 4.963 4.352 3.967 2.002 7.901 4.072 11.927 5.952 2.292 1.048 4.026 2.513 4.823 4.975zm-369.529 99.42c-7.977-4.248-15.831-8.454-23.686-12.608q-20.521-10.839-41.058-21.667c-2.159-1.134-3.555-2.752-2.857-5.37s2.577-3.461 5.102-3.246c2.217.192 4.439.384 6.656.582 11.636 1.076 23.319 2.327 35.002 3.171 4.409.332 8.925 2.106 13.382-.233.286-.109.617-.172.964-.172.569 0 1.097.171 1.536.464l-.01-.006c3.643 3.095 8.145 1.711 12.218 2.525.535.111 1.414-.419 1.774-.919.204-.279-.157-1.298-.582-1.629-2.327-1.955-4.782-3.752-7.093-5.719a13.4 13.4 0 0 1-2.084-2.579l-.033-.058c-.756-1.076-1.262-2.38-2.165-3.304q-20.509-21.033-41.087-41.989c-3.951-4.044-3.368-7.471 1.664-10.089q19.304-10.054 38.632-20.043c1.606-.832 2.746-1.594 2.985-3.712.279-2.479 2.909-4.159 4.946-2.973 2.711 1.594 4.486.209 6.546-.861 2.403-1.251 4.852-2.42 7.186-3.787 4.026-2.374 8.861-3.456 11.886-7.465.337-.454 1.199-.518 1.821-.75l11.118-4.072c-4.282-2.257-5.236-3.799-4.416-6.202.716-2.147 2.327-3.281 4.439-2.816a5.466 5.466 0 0 1 3.157 2.521l.014.026c.582 1.088.233 2.647.302 4.114l12.957-6.761-3.287-6.924c-1.746 2.013-3.601 3.619-5.818 2.048a5.99 5.99 0 0 1-2.233-4.167l-.002-.023c-.047-3.072 2.63-3.531 5.167-3.788-.297-.727-.489-1.274-.739-1.786-3.607-7.488-7.382-14.906-8.89-23.203-.459-2.548.297-5.87-3.788-6.4-.442-.052-.878-.983-1.164-1.582-1.164-2.723.169-4.701 4.037-6.033v-15.174l-8.483 3.06c2.327 1.692 2.909 3.736 1.792 6.028-.948 1.902-2.833 2.45-4.742 1.85-3.037-.96-3.304-3.491-2.734-6.196-3.2.582-6.167 1.036-9.058 1.786a4.819 4.819 0 0 0-2.624 2.022l-.012.019c-1.781 3.002-4.847 3.491-7.209.989-.436-.459-1.029-1.309-1.384-1.227-4.178.919-8.68-.204-12.659 2.124-.966.582-2.438.582-3.601.395-2.101-.349-4.136-1.076-6.213-1.582-2.246-.547-3.648-1.804-3.555-4.236s1.442-3.713 3.828-3.886c1.059-.081 2.13 0 3.194 0 17.169-.087 33.936-2.479 50.035-8.727a17.863 17.863 0 0 0 4.588-2.523l-.044.033c5.184-4.101 6.981-12.091 4.654-19.822-17.978 11.048-38.015 13.835-58.524 13.835s-40.68-2.81-58.907-14.12c0 4.009.122 7.68-.041 11.339-.134 2.973.849 5.335 3.153 7.104a36.223 36.223 0 0 0 5.302 3.624l.184.095c5.373 2.838 11.651 4.781 18.306 5.446l.213.017c2.868.268 4.521 2.263 4.213 4.527-.332 2.484-2.537 4.212-5.376 3.566-6.004-1.367-11.938-3.054-17.891-4.654a24.37 24.37 0 0 1-2.954-1.228l.144.065c0 6.498-.169 12.514.041 18.513.32 9.118-1.816 17.634-5.684 25.803-4.434 9.344-8.826 18.711-13.306 28.031-4.154 8.451-6.593 18.39-6.616 28.896v.008c-.169 24.331-.07 48.667-.07 73.004q0 60.357-.041 120.707c0 7.907 2.845 14.085 9.536 18.362 2.138 1.449 4.669 2.964 7.281 4.346l.457.22c9.688 4.835 20.049 7.564 30.678 9.309 6.941 1.118 13.963 1.746 21.014 2.653.465-2.996 1.461-4.951 4.392-4.951 3.113 0 3.904 2.275 4.399 4.707h10.636c.535-2.415 1.321-4.462 4.101-4.707 2.909-.262 3.979 1.821 4.899 4.171l11.014-1.431v-3.566c-.041-15.511-.122-31.023-.122-46.545 0-14.056.099-28.113.081-42.163 0-1.012-.343-2.525-1.041-2.95-3.281-1.99-6.749-3.678-10.106-5.452-2.17 3.049-3.986 3.799-6.179 2.717s-2.793-3.217-1.461-6.749zm35.246-30.534c1.239.675 2.124 1.164 3.037 1.653q60.374 30.998 120.719 62.044c2.117 1.094 3.694 1.129 5.818.029q60.467-31.161 121.016-62.172c.884-.454 1.746-.989 2.874-1.647-1.082-.616-1.816-1.053-2.566-1.442q-60.077-31.331-120.096-62.696c-1.961-1.024-3.398-.948-5.324.041q-61.316 31.382-122.691 62.637c-.832.43-1.641.913-2.787 1.554zm-5.986 46.154v100.024c0 3.374-.931 7.389.582 9.942s5.452 3.706 8.378 5.393c9.786 5.632 19.595 11.229 29.562 16.93-1.041-3.909-.262-6.19 2.211-6.936 2.205-.669 4.614.395 5.137 2.519.262 1.048.332 2.577-.25 3.304-.971 1.211-2.525 1.961-3.886 2.938 1.164.686 2.577 1.524 3.998 2.327 1.891 1.064 3.543 2.327 6.149 1.496.971-.308 3.304 1.314 3.863 2.572a6.824 6.824 0 0 0 3.317 3.596l.04.018c1.634.837 3.188 1.832 4.782 2.74 4.252 2.432 8.512 4.852 12.729 7.255 2.327-3.235 4.184-3.962 6.441-2.74s2.636 3.45 1.094 7.109c10.56 6.051 21.126 12.131 31.737 18.129a4.067 4.067 0 0 0 1.717.374c.339 0 .667-.041.983-.117l-.028.006c2.961-.634 4.514.273 5.649 3.014.523 1.274 1.699 2.281 2.583 3.403l1.111-.582c-.966-4.439 1.269-9.076-1.519-13.463-.541-.849-.093-2.426.122-3.631.308-1.746 1.088-3.427 1.164-5.167a88.162 88.162 0 0 0-.013-10.72l.012.248c-.134-2.124-.971-4.189-1.304-6.313a11.726 11.726 0 0 1 .063-3.754l-.01.071c.326-1.932 1.164-3.811 1.256-5.737.1-1.566.157-3.394.157-5.236s-.058-3.671-.17-5.484l.012.248c-.122-1.932-.96-3.806-1.251-5.737a13.27 13.27 0 0 1 .111-4.008l-.012.081c.279-1.746 1.053-3.45 1.164-5.196a82.478 82.478 0 0 0-.013-10.416l.013.24c-.151-2.217-.995-4.381-1.304-6.597a13 13 0 0 1 .243-4.013l-.016.086c.268-1.559 1.083-3.078 1.088-4.619.081-16.773.064-33.547.041-50.326 0-4.742.675-4.358-4.358-4.329-21.428.116-42.856.314-64.283.349a13.52 13.52 0 0 1-6.103-1.513l.076.036c-16.634-8.68-33.198-17.506-49.785-26.281-.925-.459-1.879-.872-3.281-1.536zm265.884.065c-1.391.692-2.327 1.164-3.258 1.624-16.936 8.727-33.843 17.489-50.832 26.106-1.841.94-4.012 1.498-6.313 1.512h-.005q-32.133-.041-64.266-.407c-2.56-.029-3.288.657-3.258 3.24.128 12.799.058 25.599.058 38.399v2.781c4.206.582 5.678 1.827 5.655 4.486s-1.234 3.619-5.463 4.299v16.959c4.021.582 5.51 1.874 5.463 4.532s-1.403 3.701-5.498 4.369v17.158c2.909 0 5.236.582 5.481 3.904.192 2.723-1.304 3.979-5.457 4.707v16.989c4.021.454 5.37 1.496 5.469 4.072.099 2.705-1.192 3.806-5.44 4.608v16.134l6.371 3.991c5.568-3.217 11.718-6.691 17.762-10.339 1.164-.721 1.879-2.229 2.955-3.194s2.327-2.374 3.357-2.246c4.427.553 6.981-2.665 10.74-4.317-3.828-.884-5.498-2.752-4.852-5.289.582-2.24 2.141-3.642 4.469-3.142a5.357 5.357 0 0 1 3.262 2.346l.012.022c.582 1.064.122 2.659.122 4.288l22.33-12.928c-1.059-2.525-1.221-4.829 1.216-6.336 2.694-1.664 4.701-.111 6.527 2.165 7.121-5.545 16.128-7.82 22.219-14.644a3.406 3.406 0 0 1 1.256-.611l.024-.005 9.891-3.997c-1.164-2.054-2.467-3.491-2.659-5.021-.157-1.263 1.029-2.688 1.85-4.572l5.777 6.248c4.422-2.595 8.523-5.149 12.799-7.43 1.804-.971 2.327-2.135 2.327-4.101q-.087-51.781-.041-103.562zm-16.139-232.083 64.836-78.241c-.75-.407-1.164-.657-1.589-.855q-60.706-28.659-121.399-57.355c-1.699-.803-2.525-.337-3.659.849q-31.121 32.581-62.312 65.162c-1.391 1.449-2.734 2.944-4.236 4.562zM305.35 154.442v3.491c0 44.799.14 89.599-.215 134.397-.058 7.081 1.379 12.404 7.109 16.704 3.27 2.455 5.946 5.702 9.181 8.873.739-.936 1.164-1.589 1.699-2.147q28.508-29.672 57.017-59.384c3.147-3.281 4.654-3.549 8.727-1.507q20.736 10.403 41.465 20.829c.901.454 1.833.868 2.862 1.349a10.7 10.7 0 0 0 .154-1.181l.002-.041c0-17.938-.035-35.874.07-53.811 0-2.071-1.164-2.583-2.543-3.287l-122.401-62.812c-.913-.471-1.867-.873-3.13-1.472zM125.381 330.397c.989 1.053 1.832 1.967 2.705 2.857q26.349 26.902 52.653 53.852c1.693 1.746 2.874 2.037 5.114.89q61.671-31.626 123.471-63.068c.89-.454 1.746-.971 2.723-1.512-.419-.489-.646-.797-.919-1.064q-28.857-28.095-57.686-56.219c-1.564-1.531-2.583-.919-4.014-.174q-39.248 20.421-78.509 40.796zm205.132-7.093c.313.236.671.477 1.043.701l.058.033q60.839 31.731 121.655 63.516c1.955 1.024 2.729.163 3.863-.989q25.541-26.076 51.146-52.095c1.624-1.647 3.596-2.95 5.818-4.754-1.891-1.041-2.7-1.519-3.531-1.944q-60.886-30.638-121.76-61.322c-1.967-.995-3.089-.942-4.654.704q-25.884 27.141-51.92 54.184c-.588.616-1.123 1.286-1.717 1.967zm51.199-310.195a7.515 7.515 0 0 0-.196 1.13l-.003.034c0 15.709 0 31.417-.064 47.126 0 2.008 1.088 2.659 2.554 3.345q60.194 28.346 120.37 56.709c.808.378 1.641.71 2.758 1.192 0-17.961-.041-35.403.052-52.845 0-2.176-.663-3.153-2.688-4.014Q449.224 42.147 393.987 18.34c-4.031-1.769-8.099-3.468-12.252-5.231zM148.187 177.545c13.882-.297 27.898-1.746 41.308-6.819 5.184-1.967 10.164-4.341 14.103-8.395 4.073-4.189 4.287-8.25 0-12.131a42.827 42.827 0 0 0-9.785-6.637l-.252-.112c-9.961-4.812-20.694-6.813-31.639-7.837-17.419-1.629-34.634-.663-51.455 4.451-6.691 2.031-13.172 4.654-18.316 9.664-4.498 4.369-4.742 8.727 0 12.719a48.786 48.786 0 0 0 11.933 7.441l.314.123c13.859 5.859 28.596 7.255 43.787 7.534zm-30.254 217.042-.058.616c.413.244.814.512 1.239.739q62.312 32.988 124.657 65.942a8.39 8.39 0 0 0 3.723.856l.141-.001h-.007c13.579 0 27.153-.105 40.727-.169h9.669l.105-.797c-.808-.448-1.606-.919-2.426-1.344q-56.138-28.829-112.248-57.704c-4.189-2.17-8.448-3.002-12.998-3.398-11.863-1.024-23.721-2.182-35.583-3.264-5.643-.535-11.299-.989-16.948-1.478zm223.704 67.304c.041.198.076.401.116.582h4.276c14.918.099 29.841.244 44.764.227a13.036 13.036 0 0 0 5.834-1.407l-.074.034q32.273-16.465 64.446-33.163 26.81-13.812 53.601-27.642c.774-.401 1.519-.861 2.275-1.298-18.519.134-36.816.663-55.114 1.263a7.54 7.54 0 0 0-2.982 1.083l.032-.019q-57.413 29.469-114.814 58.938c-.832.419-1.577.931-2.368 1.403zm194.521-331.199.128-.651-18.525-9.844v6.144z"/>
  <path d="M165.443 506.777a4.2 4.2 0 0 1-8.395.161l-.001-.01a4.236 4.236 0 0 1 4.236-4.178h.044-.003a4.166 4.166 0 0 1 4.119 4.019v.007zM161.261 485.273h-.026a4.212 4.212 0 1 1 4.21-4.065v-.007a4.402 4.402 0 0 1-4.173 4.072h-.01zM161.341 253.383l-.087.001a4.1 4.1 0 0 1-.093-8.199h.004l.122-.002a4.149 4.149 0 0 1 4.149 4.149v.026-.002a4.108 4.108 0 0 1-4.096 4.026h-.001zM200.212 253.389a4.1 4.1 0 0 1 .157-8.2 4.1 4.1 0 0 1 4.101 4.025v.004a4.171 4.171 0 0 1-4.171 4.171l-.093-.001h.004zM155.326 262.355v.026a4.248 4.248 0 0 1-3.888 4.232l-.016.001h-.026a4.333 4.333 0 0 1-4.33-4.151v-.009a4.246 4.246 0 0 1 4.247-4.229h.012-.001a4.113 4.113 0 0 1 4.002 4.112v.019-.001zM170.651 258.224l.064-.001a4.225 4.225 0 0 1 4.224 4.188v.002a4.313 4.313 0 0 1-4.012 4.183l-.014.001h-.017a4.205 4.205 0 0 1-4.206-4.206v-.012.001l-.001-.082a4.072 4.072 0 0 1 3.957-4.071h.006zM190.368 266.614a4.395 4.395 0 0 1-4.306-4.228v-.007a4.31 4.31 0 0 1 4.061-4.142l.011-.001.099-.001a4.13 4.13 0 0 1 4.124 3.894l.001.011a4.258 4.258 0 0 1-3.978 4.474l-.012.001zM165.438 274.98a4.242 4.242 0 0 1-3.968 4.206l-.012.001a4.31 4.31 0 0 1-4.421-4.061l-.001-.011a4.449 4.449 0 0 1 3.984-4.252l.019-.002h.053a4.351 4.351 0 0 1 4.345 4.108l.001.011zM184.864 274.945l.002.114a4.096 4.096 0 0 1-8.188.12v-.006a4.096 4.096 0 0 1 8.186-.234v.006zM145.866 377.954a4.119 4.119 0 0 1-4.116 4.282h-.034.002a4.072 4.072 0 0 1-4.072-4.072 4.1 4.1 0 0 1 8.197-.221v.005zM165.438 223.56a4.177 4.177 0 0 1-4.319 4.141h.007a4.261 4.261 0 0 1-4.072-4.1v-.007a4.202 4.202 0 0 1 4.341-4.072h-.007a4.071 4.071 0 0 1 4.049 4.036v.002zM170.657 523.981a3.862 3.862 0 0 1-3.962-4.082l-.001.01a4.039 4.039 0 0 1 4.202-4.184h-.007a4.293 4.293 0 0 1 4.044 4.123v.065a4.072 4.072 0 0 1-4.287 4.067h.01zM145.866 429.676a4.073 4.073 0 0 1-4.377 4.003l.014.001a3.952 3.952 0 0 1-3.828-4.219l-.001.012a3.885 3.885 0 0 1 4.334-3.971l-.018-.002a3.985 3.985 0 0 1 3.874 4.187v-.009zM155.326 442.656v.003a4.153 4.153 0 0 1-3.977 4.15h-.009a4.276 4.276 0 0 1-4.276-4.215v-.003a4.324 4.324 0 0 1 4.32-4.171h.021-.001a4.244 4.244 0 0 1 3.921 4.229v.007zM170.79 446.822a4.073 4.073 0 0 1-4.073-4.018v-.002a4.202 4.202 0 0 1 4.066-4.358h.006a4.315 4.315 0 0 1 4.166 4.061l.001.011.001.088a4.218 4.218 0 0 1-4.164 4.218h-.003zM161.219 459.394a4.231 4.231 0 0 1-4.177-3.967l-.001-.012a4.293 4.293 0 0 1 4.239-4.264h.003a4.243 4.243 0 0 1 4.155 4.241l-.001.093v-.004a4.14 4.14 0 0 1-4.131 3.916l-.093-.001h.004zM141.723 485.256a4.113 4.113 0 0 1-4.072-4.071v-.002a4.108 4.108 0 1 1 8.197.071l.001-.014a4.155 4.155 0 0 1-4.124 4.014h-.002zM184.864 249.27a3.933 3.933 0 0 1-4.22 4.114l.012.001a3.873 3.873 0 0 1-3.973-4.038v.007a4.021 4.021 0 0 1 4.198-4.16h-.009a4.073 4.073 0 0 1 3.991 4.072v.007zM194.359 236.534a4.032 4.032 0 0 1-3.855 4.217h-.009a4.247 4.247 0 0 1-4.433-4.015l-.001-.01a4.372 4.372 0 0 1 4.229-4.294h.007a4.214 4.214 0 0 1 4.061 4.096v.006zM174.938 236.697a4.143 4.143 0 0 1-4.38 4.072l.011.001a3.962 3.962 0 0 1-3.874-4.2l-.001.011a4.148 4.148 0 0 1 3.996-4.136h.007a4.323 4.323 0 0 1 4.241 4.249v.003zM155.314 288.186l.002.102a3.978 3.978 0 0 1-4.266 3.969l.012.001a4.24 4.24 0 0 1-3.963-4.126v-.005a4.12 4.12 0 0 1 4.357-4.072l-.011-.001h.028a3.85 3.85 0 0 1 3.84 4.143l.001-.012zM174.933 288.053a4.248 4.248 0 0 1-3.901 4.229l-.016.001a3.978 3.978 0 0 1-4.323-3.965v-.059.002a3.86 3.86 0 0 1 3.827-4.178h.001a4.073 4.073 0 0 1 4.411 3.963v.005zM145.86 455.188a3.915 3.915 0 0 1-3.831 4.194h-.003c-2.513.14-4.294-1.478-4.352-3.939a4.072 4.072 0 0 1 4.066-4.287h.006a4.191 4.191 0 0 1 4.114 4.024v.007zM151.236 523.975l-.096.001a4.072 4.072 0 0 1-4.069-4.231v.008a4.308 4.308 0 0 1 4.159-4.014H151.243a4.072 4.072 0 0 1 4.065 4.31l.001-.011v.058a3.885 3.885 0 0 1-4.082 3.881h.009zM170.814 464.323h.052a4.073 4.073 0 0 1 4.067 4.292l.001-.01a4.313 4.313 0 0 1-4.184 4.002h-.006a4.156 4.156 0 0 1-4.073-4.38l-.001.01a3.927 3.927 0 0 1 4.153-3.915l-.01-.001zM155.326 236.697l.001.087a3.986 3.986 0 0 1-3.986 3.986h-.019.001a4.136 4.136 0 0 1-4.253-4.134v-.044.002a4.325 4.325 0 0 1 4.061-4.136l.012-.001a4.19 4.19 0 0 1 4.184 4.189v.056-.003zM180.547 227.703a4.075 4.075 0 0 1-3.857-4.516l-.002.018c.169-2.327 1.897-3.799 4.294-3.701a3.928 3.928 0 0 1 3.873 4.443l.002-.019a4.135 4.135 0 0 1-4.321 3.776h.009zM155.314 468.518a4.148 4.148 0 0 1-4.026 4.072h-.006a4.326 4.326 0 0 1-4.219-4.274v-.002a4.12 4.12 0 0 1 4.416-4.008l-.014-.001a3.923 3.923 0 0 1 3.844 4.226l.001-.014zM174.933 494.105a4.188 4.188 0 0 1-3.951 4.159l-.011.001a3.921 3.921 0 0 1-4.279-3.905l.002-.145v.007a3.87 3.87 0 0 1 3.86-4.142h.01-.001a4.136 4.136 0 0 1 4.369 4.02v.005zM137.668 506.725l-.001-.098a3.87 3.87 0 0 1 4.084-3.863l-.01-.001a3.944 3.944 0 0 1 4.136 4.206l.001-.012a4.25 4.25 0 0 1-4.064 4.072h-.009a4.167 4.167 0 0 1-4.137-4.313v.007zM151.287 498.265h-.044a4.093 4.093 0 0 1-.046-8.186h.002a3.858 3.858 0 0 1 4.114 3.849v.046-.002a3.927 3.927 0 0 1-4.032 4.293h.006zM492.808 202.021a4.194 4.194 0 1 1 4.322-4.237v.003a4.389 4.389 0 0 1-4.319 4.236h-.003zM493.023 373.852a4.201 4.201 0 1 1-4.323 4.251v-.002a4.441 4.441 0 0 1 4.317-4.247h.006zM497.125 300.835a4.212 4.212 0 0 1-8.418.008v-.007a4.212 4.212 0 0 1 8.418-.009v.008zM497.131 275.126a4.213 4.213 0 0 1-8.418-.155v-.003a4.213 4.213 0 0 1 8.418.154v.003zM477.512 197.903a4.098 4.098 0 0 1-8.194-.088l.001-.093v.004a4.098 4.098 0 0 1 8.194.088l-.001.093v-.004zM516.511 197.716l.002.128a4.095 4.095 0 0 1-8.188.134v-.007a4.095 4.095 0 0 1 8.186-.262v.007zM536.153 481.171a4.194 4.194 0 1 1-4.25-4.316h.003a4.465 4.465 0 0 1 4.247 4.31v.007zM512.554 476.866a4.21 4.21 0 0 1 3.95 4.493l.001-.012a4.082 4.082 0 1 1-8.143-.595l-.001.014a4.215 4.215 0 0 1 4.194-3.898zM477.512 481.108a4.095 4.095 0 0 1-8.192-.035v-.037.002a4.095 4.095 0 0 1 8.192.035v.037-.002zM482.841 446.822a4.277 4.277 0 0 1-4.126-4.274l.001-.101v.005a4.363 4.363 0 0 1 4.212-4.009h.007a4.22 4.22 0 0 1 4.077 4.216c0 .064-.002.128-.004.192v-.009a4.15 4.15 0 0 1-4.145 3.979h-.022.001zM536.153 172.157a4.25 4.25 0 0 1-4.485 3.979l.011.001a4.145 4.145 0 0 1-3.904-4.229v.004a4.31 4.31 0 0 1 4.141-4.073h.007a4.382 4.382 0 0 1 4.229 4.314v.003zM565.126 159.317a4.358 4.358 0 0 1-4.229 4.299h-.006a4.45 4.45 0 0 1-4.154-4.098l-.001-.014-.001-.093a4.196 4.196 0 0 1 8.39-.098v.005zM516.511 378.006v.058a4.093 4.093 0 0 1-8.187.061V378.064a4.093 4.093 0 0 1 8.187-.062v.003zM565.115 262.529a4.386 4.386 0 0 1-4.138 4.072l-.011.001a4.477 4.477 0 0 1-4.229-4.327v-.007a4.354 4.354 0 0 1 4.341-4.039l.134.002h-.007a4.276 4.276 0 0 1 3.911 4.255v.047-.002zM551.343 382.229a4.12 4.12 0 0 1-4.014-4.416l-.001.014a4.1 4.1 0 1 1 8.186.488l.001-.011a4.074 4.074 0 0 1-4.07 3.928l-.107-.002h.005zM532.039 382.242l-.093.001a4.196 4.196 0 0 1-.098-8.39h.005a4.45 4.45 0 0 1 4.304 4.249v.009a4.39 4.39 0 0 1-4.107 4.131l-.013.001zM526.064 236.657a4.125 4.125 0 0 1-4.028 4.107h-.064a4.253 4.253 0 0 1-4.252-4.161v-.004a4.372 4.372 0 0 1 4.059-4.159l.014-.001h.012a4.26 4.26 0 0 1 4.259 4.216v.003zM560.902 240.769a4.313 4.313 0 0 1-4.171-4.013l-.001-.014a4.453 4.453 0 0 1 4.243-4.299h.009a4.32 4.32 0 0 1 4.131 4.313l-.001.072v-.003a4.191 4.191 0 0 1-4.182 3.944h-.033.002zM512.421 142.194l.084-.001a3.997 3.997 0 0 1 3.989 4.261l.001-.012v.058a3.885 3.885 0 0 1-4.082 3.881h.009c-.042.002-.093.002-.143.002a3.94 3.94 0 0 1-3.929-4.228l-.001.013a4.032 4.032 0 0 1 4.031-3.974h.044-.003zM453.914 245.18a4.165 4.165 0 0 1 4.159 4.288v-.006a4.115 4.115 0 0 1-4.109 3.928l-.096-.001h.005a4.107 4.107 0 1 1 .049-8.208h-.009zM532.027 150.386l-.087.001a4.097 4.097 0 0 1-.093-8.193h.004l.087-.001a4.097 4.097 0 0 1 .092 8.194h-.004zM492.907 245.18a4.11 4.11 0 0 1-.091 8.215 4.109 4.109 0 0 1-4.104-3.929v-.067a4.218 4.218 0 0 1 4.194-4.218h.001zM531.865 245.18l.079-.001a4.102 4.102 0 0 1 .083 8.204h-.004a4.072 4.072 0 0 1-4.253-4.069l.001-.084v.004a4.15 4.15 0 0 1 4.093-4.056h.003zM555.526 249.258a3.862 3.862 0 0 1-3.854 4.125h-.028.002a3.991 3.991 0 0 1-4.311-3.979v-.044.003l-.001-.102a4.073 4.073 0 0 1 4.219-4.071h-.007.012a3.967 3.967 0 0 1 3.967 3.968l-.002.104v-.005zM467.581 262.296v.002a4.311 4.311 0 0 1-4.194 4.31h-.006a4.224 4.224 0 0 1-4.072-4.101v-.006a4.072 4.072 0 0 1 3.835-4.258l.011-.001a4.211 4.211 0 0 1 4.426 4.047v.007zM482.83 266.608a4.355 4.355 0 0 1-4.113-4.414v.003a4.298 4.298 0 0 1 4.233-3.974h.002a4.132 4.132 0 0 1 4.036 4.393l.001-.012a4.196 4.196 0 0 1-4.158 4.002h-.002zM502.402 266.608a4.22 4.22 0 0 1-4.073-4.395v.009a4.073 4.073 0 0 1 4.072-3.979h.044-.002a4.142 4.142 0 0 1 4.072 4.069v.019a4.281 4.281 0 0 1-4.105 4.278h-.009zM526.058 262.483a4.32 4.32 0 0 1-4.061 4.136l-.012.001a4.47 4.47 0 0 1-4.264-4.285v-.009a4.326 4.326 0 0 1 4.316-4.074l.112.002h-.005a4.191 4.191 0 0 1 3.916 4.18v.052-.002zM545.56 262.483a4.097 4.097 0 1 1-8.191-.173v.004a4.073 4.073 0 0 1 4.018-4.073h.003l.102-.002a4.072 4.072 0 0 1 4.072 4.073c0 .06-.002.119-.003.178v-.009zM458.091 275.126a4.207 4.207 0 0 1-8.407-.154v-.003a4.207 4.207 0 0 1 8.407.155v.003zM473.492 270.855a4.242 4.242 0 0 1 4.002 4.448v-.01a4.098 4.098 0 1 1-8.182-.483l-.001.011a4.232 4.232 0 0 1 4.175-3.968h.002zM555.526 223.548c.002.041.002.089.002.138 0 2.22-1.8 4.021-4.021 4.021-.064 0-.128-.002-.192-.004h.009a4.132 4.132 0 0 1-3.991-4.112v-.001a3.951 3.951 0 0 1 4.249-4.072l-.012-.001c.037-.002.082-.002.127-.002a3.834 3.834 0 0 1 3.828 4.044v-.009zM516.511 275.172a4.093 4.093 0 1 1-8.181-.239v.006a4.093 4.093 0 1 1 8.181.239v-.006zM536.153 275.184a4.297 4.297 0 0 1-4.49 3.985h.009a4.192 4.192 0 0 1-3.892-4.269v.004a4.355 4.355 0 0 1 4.157-4.072h.009a4.464 4.464 0 0 1 4.206 4.346v.005zM555.526 275.097a3.991 3.991 0 0 1-3.954 4.125h-.002a4.072 4.072 0 0 1-4.247-4.07l.001-.084v.004a4.267 4.267 0 0 1 3.967-4.189l.014-.001h.017a4.205 4.205 0 0 1 4.206 4.206v.006zM506.574 159.404a4.285 4.285 0 0 1-4.282 4.201h-.007a4.24 4.24 0 0 1-3.933-4.224v-.043a4.139 4.139 0 0 1 3.948-4.133h.067a4.207 4.207 0 0 1 4.206 4.201zM506.574 288.239a4.191 4.191 0 0 1-4.187 4.048c-.067 0-.132-.002-.198-.004h.009a3.998 3.998 0 0 1-3.839-4.223l-.001.01c.035-2.484 1.781-4.073 4.306-3.986a4.016 4.016 0 0 1 3.909 4.159v-.007zM541.441 292.283l-.061.001a4.021 4.021 0 0 1-4.012-4.29l-.001.012-.001-.089a3.84 3.84 0 0 1 4.086-3.834l-.011-.001a3.933 3.933 0 0 1 4.113 3.921 4.131 4.131 0 0 1-4.112 4.276h-.001zM560.961 284.074h.056a4.109 4.109 0 0 1 4.105 3.949v.007l.001.087a4.171 4.171 0 0 1-4.171 4.171h-.019.001a4.108 4.108 0 1 1 0-8.216zM531.789 227.703a4.146 4.146 0 0 1-4.021-4.131v-.008a4.072 4.072 0 0 1 4.334-4.063l-.012-.001a4.201 4.201 0 0 1 4.072 4.066v.007a4.254 4.254 0 0 1-4.251 4.132l-.131-.002h.006zM516.546 300.754l.001.067a4.096 4.096 0 0 1-8.192.07v-.003l-.001-.067a4.096 4.096 0 0 1 8.192-.07v.003zM531.83 296.681h.025a4.3 4.3 0 0 1 4.298 4.171v.006a4.42 4.42 0 0 1-4.057 4.165l-.016.001a4.354 4.354 0 0 1-4.306-4.217v-.007a4.262 4.262 0 0 1 4.045-4.119h.01zM521.851 163.599a4.207 4.207 0 0 1 .124-8.407h.004a4.207 4.207 0 0 1-.124 8.407h-.004zM545.56 313.804a3.956 3.956 0 0 1-3.877 4.16h-.003c-2.513.116-4.264-1.501-4.311-3.979a3.991 3.991 0 0 1 3.826-4.212h.007a4.125 4.125 0 0 1 4.358 4.027v.004zM565.12 313.92a4.072 4.072 0 0 1-4.072 4.072 4.103 4.103 0 0 1-.22-8.202h.005c.044-.002.094-.002.145-.002a4.144 4.144 0 0 1 4.143 4.133v.001zM527.513 327.121c.523-2.38 1.281-4.533 4.282-4.626 2.287-.076 3.671 1.164 4.189 3.229s-.401 3.624-2.24 4.533c-1.99.977-3.764.483-5.137-1.239a15.458 15.458 0 0 1-1.122-1.887l-.042-.091zM551.576 322.496l.1-.002a3.85 3.85 0 0 1 3.844 4.084l.001-.01c.003.049.003.107.003.164a3.974 3.974 0 0 1-4.221 3.967l.011.001a4.074 4.074 0 0 1-3.986-4.072v-.037.002a3.986 3.986 0 0 1 4.26-4.096l-.012-.001zM541.481 335.441a4.249 4.249 0 0 1 4.075 4.244l-.002.138v-.007a4.073 4.073 0 0 1-4.072 3.968l-.069-.001h.003l-.076.001a4.01 4.01 0 0 1-3.997-4.333l-.001.014a4.202 4.202 0 0 1 4.133-4.026h.003zM565.132 339.723a4.196 4.196 0 0 1-8.39-.088l.001-.092v.004a4.419 4.419 0 0 1 4.13-4.113l.013-.001a4.365 4.365 0 0 1 4.247 4.284v.004zM527.781 352.022a4.18 4.18 0 0 1 4.603-3.845l-.018-.002a4.299 4.299 0 0 1 3.775 4.405v-.007a4.222 4.222 0 0 1-4.638 3.793l.018.002a4.076 4.076 0 0 1-3.74-4.359l-.001.014zM551.454 348.171h.007a4.072 4.072 0 0 1 4.065 4.316l.001-.011.001.067a3.85 3.85 0 0 1-4.12 3.842l.012.001c-.042.002-.091.002-.139.002a3.944 3.944 0 0 1-3.932-4.25l-.001.014a4.143 4.143 0 0 1 4.106-3.979h.002zM541.413 155.203a4.156 4.156 0 0 1 4.149 3.995v.007a4.1 4.1 0 1 1-8.194.252c0-.063.002-.124.004-.186v.009a4.11 4.11 0 0 1 4.04-4.079h.003zM497.125 172.116a4.206 4.206 0 0 1-8.407-.197v-.001a4.206 4.206 0 0 1 8.407.197v.001zM556.737 365.276a4.28 4.28 0 0 1 4.484-3.997h-.01a4.174 4.174 0 0 1 3.899 4.163l-.001.082v-.004a4.337 4.337 0 0 1-4.139 4.072h-.009a4.46 4.46 0 0 1-4.224-4.31v-.007zM493.052 219.499a4.16 4.16 0 0 1 4.072 4.068v.004l.002.126a4.201 4.201 0 1 1-4.069-4.199h-.007zM506.574 185.207a4.243 4.243 0 0 1-4.238 4.074l-.114-.002h.006a4.074 4.074 0 0 1-3.875-4.22v.007c0-2.484 1.746-4.119 4.288-4.009a3.992 3.992 0 0 1 3.933 4.157v-.007zM458.074 223.415l.002.105a4.189 4.189 0 0 1-4.166 4.189h-.001a4.273 4.273 0 0 1-4.218-3.948l-.001-.014v-.056a4.189 4.189 0 0 1 3.885-4.178l.014-.001a4.113 4.113 0 0 1 4.484 3.895v.009zM560.816 387.082c.039-.002.084-.002.131-.002a4.098 4.098 0 0 1 .137 8.194h-.007c-.039.002-.084.002-.131.002a4.098 4.098 0 0 1-.137-8.194h.007zM541.481 412.752a4.154 4.154 0 0 1 4.072 4.338v-.009a3.939 3.939 0 0 1-4.165 3.886l.01.001c-2.49 0-4.126-1.746-4.031-4.252a4.027 4.027 0 0 1 4.118-3.962h-.004zM565.115 416.888a4.072 4.072 0 0 1-4.024 4.072h-.002c-.039.002-.084.002-.131.002a4.218 4.218 0 0 1-4.215-4.067v-.007a4.272 4.272 0 0 1 4.063-4.124h.009l.128-.002a4.17 4.17 0 0 1 4.171 4.124v.002zM497.113 429.653v.04a4.201 4.201 0 1 1-3.963-4.194l-.011-.001a4.192 4.192 0 0 1 3.974 4.153v.002zM512.554 425.498l.074-.001a3.885 3.885 0 0 1 3.881 4.082v-.009a3.997 3.997 0 0 1-4.229 4.124l.011.001a4.074 4.074 0 0 1-3.962-4.071v-.002a3.951 3.951 0 0 1 4.237-4.125l-.012-.001zM531.963 425.493a4.096 4.096 0 0 1-.024 8.192h-.025.001a4.096 4.096 0 0 1 .024-8.192h.025-.001zM551.535 425.498c2.473.041 4.072 1.804 3.986 4.311a3.946 3.946 0 0 1-4.176 3.874l.01.001a4.073 4.073 0 0 1-4.026-4.072 3.986 3.986 0 0 1 4.217-4.113l-.011-.001zM565.115 210.941a4.074 4.074 0 0 1-4.383 4.025l.014.001a4.098 4.098 0 1 1 .412-8.186h-.009a4.109 4.109 0 0 1 3.968 4.105v.058-.003zM545.56 210.894l.001.084a3.998 3.998 0 0 1-4.278 3.989l.012.001-.07.001a3.862 3.862 0 0 1-3.857-4.083l-.001.01c-.003-.049-.003-.108-.003-.166a3.951 3.951 0 0 1 4.234-3.941l-.012-.001a4.075 4.075 0 0 1 3.974 4.072v.038-.002zM502.425 446.822a4.071 4.071 0 0 1-4.072-4.036v-.002c-.002-.04-.002-.088-.002-.136a4.2 4.2 0 0 1 4.068-4.199h.007a4.273 4.273 0 0 1 4.119 4.063v.009l.002.128a4.171 4.171 0 0 1-4.119 4.171h-.002zM521.828 438.444a4.271 4.271 0 0 1 4.212 3.96l.001.014a4.23 4.23 0 0 1-4.065 4.421h-.007a4.202 4.202 0 0 1-.18-8.395l.01-.001zM541.487 438.45a4.232 4.232 0 0 1 4.072 4.389v-.007a4.097 4.097 0 0 1-8.19-.182c0-.063.002-.126.004-.189v.009a4.191 4.191 0 0 1 4.109-4.021h.003zM565.12 442.796a4.192 4.192 0 1 1-8.378-.311v.007a4.45 4.45 0 0 1 4.196-4.072l.011-.001a4.365 4.365 0 0 1 4.171 4.359v.017-.001zM492.837 502.751l.061-.001a4.23 4.23 0 0 1 4.214 3.865l.001.016a4.205 4.205 0 1 1-8.407.212l.001-.065v.003a4.23 4.23 0 0 1 4.126-4.031h.005zM565.115 185.23a4.179 4.179 0 0 1-4.397 4.072h.01a4.285 4.285 0 0 1-3.991-4.209v-.003a4.213 4.213 0 0 1 4.438-4.008l-.01-.001a4.074 4.074 0 0 1 3.951 4.071l-.001.081v-.004zM536.153 197.716a4.464 4.464 0 0 1-4.231 4.317l-.01.001a4.367 4.367 0 0 1-4.142-4.059l-.001-.014v-.051a4.282 4.282 0 0 1 3.888-4.264l.017-.001a4.33 4.33 0 0 1 4.48 4.06l.001.012zM497.113 455.31a4.201 4.201 0 0 1-8.402 0 4.201 4.201 0 0 1 8.402 0zM547.317 197.763a4.125 4.125 0 0 1 4.325-4.113h-.009a4.075 4.075 0 0 1 3.886 4.219v-.007a4.207 4.207 0 0 1-3.974 4.159l-.011.001a4.253 4.253 0 0 1-4.219-4.252v-.006zM532.022 459.394c-.045.002-.099.002-.153.002a4.108 4.108 0 0 1-4.1-3.855l-.001-.011a4.213 4.213 0 0 1 4.066-4.375H531.847a4.282 4.282 0 0 1 4.282 4.208v.003a4.214 4.214 0 0 1-4.102 4.026h-.005zM486.984 468.593a4.115 4.115 0 0 1-4.112 4.014h-.007a4.33 4.33 0 0 1-4.136-4.324v-.029.002a4.168 4.168 0 0 1 4.512-3.927l-.016-.001a3.965 3.965 0 0 1 3.759 4.278l.001-.014zM482.865 232.438a4.16 4.16 0 0 1 4.119 4.019v.007a4.021 4.021 0 0 1-4.012 4.295l-.065-.001h.003-.024a4.19 4.19 0 0 1-4.183-3.951l-.001-.011v-.026a4.333 4.333 0 0 1 4.151-4.33h.009zM541.499 361.285h.058a4.026 4.026 0 0 1 4.015 4.331l.001-.014a4.102 4.102 0 1 1-8.192-.393v.009a3.968 3.968 0 0 1 4.126-3.933h-.007zM526.07 468.378a4.234 4.234 0 0 1-4.236 4.229h-.019.001a4.374 4.374 0 0 1-4.072-4.126l-.001-.011a4.23 4.23 0 0 1 4.303-4.16h-.003a4.073 4.073 0 0 1 4.026 4.066zM541.394 464.316a3.978 3.978 0 0 1 4.165 4.199l.001-.01a4.254 4.254 0 0 1-4.064 4.101h-.009a4.207 4.207 0 0 1-4.143-4.206l.001-.08v.004a3.904 3.904 0 0 1 4.056-4.009h-.007zM506.574 210.882v.005a4.072 4.072 0 0 1-4.291 4.066l.01.001-.088.001a3.85 3.85 0 0 1-3.844-4.084l-.001.01a3.921 3.921 0 0 1 4.22-4.112l-.014-.001a4.144 4.144 0 0 1 4.009 4.112v.002zM555.526 455.246a3.85 3.85 0 0 1-3.84 4.142h-.03.002a3.962 3.962 0 0 1-4.329-3.946l.001-.061v.003-.052a4.176 4.176 0 0 1 4.177-4.177h.019-.001a4.072 4.072 0 0 1 4.002 4.072v.019-.001zM477.506 249.428v.034a3.94 3.94 0 0 1-4.376 3.915l.018.002a3.887 3.887 0 0 1-3.822-4.197l-.001.014a4.037 4.037 0 0 1 4.36-4.002l-.014-.001a4.075 4.075 0 0 1 3.837 4.066c0 .06-.002.119-.003.178v-.009zM497.131 481.084a4.218 4.218 0 1 1-4.354-4.219h.007a4.417 4.417 0 0 1 4.346 4.208v.009zM512.415 245.192h.053a4.026 4.026 0 0 1 4.019 4.264l.001-.011a4.094 4.094 0 0 1-4.091 3.958 4.091 4.091 0 0 1-4.092-4.092l.002-.141v.007a4.074 4.074 0 0 1 4.072-3.986h.037-.002zM526.047 288.199v.007a4.073 4.073 0 0 1-4.322 4.065l.011.001a4.285 4.285 0 0 1-4.014-4.154v-.006a4.209 4.209 0 0 1 4.396-4.038h-.009a3.957 3.957 0 0 1 3.939 4.133v-.009zM551.175 305.024a4.298 4.298 0 0 1-3.845-4.623l-.001.016a4.076 4.076 0 0 1 4.39-3.722l-.014-.001a4.023 4.023 0 0 1 3.802 4.559l.003-.021a4.228 4.228 0 0 1-4.202 3.795l-.139-.002h.007zM522.008 412.752a4.073 4.073 0 0 1 4.042 4.383l.001-.014a3.986 3.986 0 0 1-4.229 3.846l.011.001a4.198 4.198 0 0 1-4.114-4.012v-.009a4.282 4.282 0 0 1 4.281-4.194h.007zM521.811 317.963a4.207 4.207 0 0 1-4.072-4.036v-.007a4.255 4.255 0 0 1 4.315-4.153h-.003a4.073 4.073 0 0 1 4.014 4.389l.001-.014a3.982 3.982 0 0 1-4.266 3.822l.013.001zM506.574 365.532a4.284 4.284 0 0 1-4.105 4.072h-.009a4.195 4.195 0 0 1-4.109-4.194l.002-.13v.006-.024a3.986 3.986 0 0 1 4.079-3.985h-.004l.079-.001a4.072 4.072 0 0 1 4.072 4.072c0 .064-.002.127-.004.191v-.009zM526.064 365.276v.054a4.294 4.294 0 0 1-4.135 4.291h-.007a4.383 4.383 0 0 1-4.194-4.022l-.001-.016v-.047a4.247 4.247 0 0 1 4.18-4.247h.024a4.138 4.138 0 0 1 4.134 3.978v.007zM551.547 167.852a4.202 4.202 0 0 1 3.974 4.456l.001-.012a3.91 3.91 0 0 1-4.202 3.845l.013.001h-.041a3.978 3.978 0 0 1-3.96-4.368l-.001.016a4.258 4.258 0 0 1 4.217-3.939h.001zM526.052 210.853a3.978 3.978 0 0 1-3.955 4.113h-.001a4.1 4.1 0 1 1-.05-8.19h-.009.001a4.014 4.014 0 0 1 4.014 4.014l-.001.067v-.003zM517.709 185.091a4.197 4.197 0 0 1 4.427-4.014l-.011-.001a3.98 3.98 0 0 1 3.915 4.156v-.009a4.073 4.073 0 0 1-4.072 4.073 4.306 4.306 0 0 1-4.259-4.201v-.005zM541.709 181.083a3.917 3.917 0 0 1 3.846 4.191l.001-.012a4.173 4.173 0 0 1-4.38 4.037h.009a4.075 4.075 0 0 1-3.802-4.575l-.002.019c.18-2.31 1.926-3.787 4.329-3.659zM506.574 236.737a4.074 4.074 0 0 1-4.401 4.003l.014.001a3.927 3.927 0 0 1-3.828-4.225l-.001.012a4.18 4.18 0 0 1 4.031-4.073h.007a4.29 4.29 0 0 1 4.178 4.282zM473.382 219.504a3.904 3.904 0 0 1 4.124 4.191l.001-.012a4.093 4.093 0 1 1-8.181-.239v.006l-.001-.098a3.85 3.85 0 0 1 4.066-3.845l-.01-.001zM545.566 236.697v.051a4.031 4.031 0 0 1-4.336 4.02l.014.001a3.928 3.928 0 0 1-3.873-4.182l-.001.012a4.203 4.203 0 0 1 3.987-4.136h.01a4.254 4.254 0 0 1 4.201 4.234v.001zM486.989 210.899a3.885 3.885 0 0 1-3.882 4.073l-.084-.001h.004a4.189 4.189 0 0 1-4.317-4.067v-.006a4.232 4.232 0 0 1 4.353-4.072h-.006a3.944 3.944 0 0 1 3.935 3.944l-.002.135v-.007zM482.9 189.304a4.29 4.29 0 0 1-4.189-4.287v-.001a4.138 4.138 0 0 1 4.132-3.946h.054-.002a3.921 3.921 0 0 1 4.107 3.917v.023-.001a4.072 4.072 0 0 1-4.066 4.293h-.037.002zM516.511 171.954l.001.091a4.093 4.093 0 0 1-8.187.095v-.004l-.001-.091a4.093 4.093 0 0 1 8.187-.095v.004zM467.581 236.773a4.114 4.114 0 0 1-4.466 3.96l.016.001a3.964 3.964 0 0 1-3.792-4.267l-.001.014a4.153 4.153 0 0 1 4.068-4.072h.004a4.307 4.307 0 0 1 4.173 4.303l-.001.063v-.003zM467.581 210.813v.033a4.118 4.118 0 0 1-3.942 4.115h-.009a3.88 3.88 0 0 1-4.295-4.011v.007a3.926 3.926 0 0 1 3.849-4.177h.003a4.212 4.212 0 0 1 4.392 4.024v.009zM516.511 455.293a3.87 3.87 0 0 1-3.864 4.073l-.061-.001h.003a3.921 3.921 0 0 1-4.267-3.905c0-.059.002-.117.003-.175v.009-.023a4.093 4.093 0 0 1 8.186-.025v.001zM477.506 455.415l.001.075a3.921 3.921 0 0 1-4.358 3.897l.018.002a3.875 3.875 0 0 1-3.839-4.185l-.001.014a4.092 4.092 0 0 1 8.182.098l-.002.104v-.005zM508.324 352.389l-.001-.076a4.093 4.093 0 0 1 8.187-.08v.004a3.862 3.862 0 0 1-3.853 4.142h-.01.001a3.928 3.928 0 0 1-4.324-3.995v.004zM516.504 223.688a4.073 4.073 0 0 1-4.072 4.014h-.052a4.072 4.072 0 0 1-4.072-4.073c0-.063.002-.126.004-.189v.009c.064-2.444 1.862-4.073 4.358-3.944a3.863 3.863 0 0 1 3.833 4.197l.001-.014zM555.526 404.188a4.198 4.198 0 0 1-4.179 3.835l-.114-.002h.006a4.28 4.28 0 0 1-3.892-4.563l-.001.014a4.006 4.006 0 0 1 4.337-3.74l-.014-.001a3.933 3.933 0 0 1 3.855 4.477l.003-.021zM477.506 506.887a4.094 4.094 0 0 1-8.186-.046v-.049.003a4.094 4.094 0 0 1 8.186.046v.049-.002zM478.729 493.96a4.235 4.235 0 0 1 4.553-3.876l-.014-.001a3.91 3.91 0 0 1 3.734 4.299l.002-.016a3.956 3.956 0 0 1-4.453 3.89l.019.002a4.263 4.263 0 0 1-3.841-4.238l.001-.065v.003zM506.574 494.263a4.145 4.145 0 0 1-4.404 3.996l.012.001a3.916 3.916 0 0 1-3.821-4.213l-.001.012a3.873 3.873 0 0 1 4.335-3.97l-.018-.002a4.075 4.075 0 0 1 3.899 4.069l-.002.114v-.006zM482.952 284.079a3.893 3.893 0 0 1 4.072 3.99v-.005a4.01 4.01 0 0 1-4.156 4.218h.007a4.268 4.268 0 0 1-4.136-4.021l-.001-.011v-.012a4.159 4.159 0 0 1 4.159-4.159h.056-.003zM502.367 472.608a4.173 4.173 0 0 1-4.008-4.416l-.001.011a3.91 3.91 0 0 1 4.159-3.881l-.011-.001h.058a4.014 4.014 0 0 1 4.014 4.014v.007a4.275 4.275 0 0 1-4.209 4.264h-.003zM307.421 593.07a4.072 4.072 0 1 1-4.298 4.145v-.004a4.19 4.19 0 0 1 4.189-4.144l.116.002h-.006zM278.261 588.294a4.207 4.207 0 0 1 .13-8.407h.004a4.207 4.207 0 0 1-.13 8.407h-.004zM291.911 597.097a3.998 3.998 0 0 1-3.882 4.161h-.005a4.072 4.072 0 1 1 3.887-4.164v.005zM248.845 549.854a4.137 4.137 0 0 1-4.119-4.003v-.007l-.001-.064a4.072 4.072 0 1 1 4.122 4.072h-.002zM229.163 549.848a4.366 4.366 0 0 1-4.073-4.354l.001-.102v.005a4.439 4.439 0 0 1 4.294-3.951h.006a4.202 4.202 0 1 1-.227 8.401h.006zM268.278 541.446a4.212 4.212 0 0 1 .055 8.418h-.009c-.053.003-.115.003-.178.003a4.213 4.213 0 1 1 .138-8.422h-.007zM268.324 567.332h.004a4.171 4.171 0 0 1 4.166 3.964v.009a4.2 4.2 0 0 1-8.402-.017v-.019.001a4.269 4.269 0 0 1 4.229-3.939h.001zM301.888 583.96a4.19 4.19 0 0 1-4.104 4.324h-.004a4.202 4.202 0 0 1 .04-8.396h.007a4.174 4.174 0 0 1 4.061 4.067v.005zM262.878 583.994a4.102 4.102 0 1 1-4.028-4.105h-.003a4.19 4.19 0 0 1 4.031 4.103v.004zM307.188 575.599a4.32 4.32 0 0 1-4.072-4.452v.007a4.207 4.207 0 0 1 8.39.26v.007a4.325 4.325 0 0 1-4.317 4.178zM239.292 554.142a4.332 4.332 0 0 1 4.219 4.298v.002a4.249 4.249 0 0 1-4.199 3.967H239.253a4.143 4.143 0 0 1-4.138-3.935v-.057a4.277 4.277 0 0 1 4.173-4.275h.005zM287.768 549.854a4.202 4.202 0 0 1 .052-8.402h.056-.003a4.215 4.215 0 0 1 4.038 4.414v-.009a4.15 4.15 0 0 1-4.142 3.997zM278.256 528.49l.064-.001a4.093 4.093 0 0 1 .068 8.187h-.003l-.064.001a4.093 4.093 0 0 1-.068-8.187h.003zM307.281 515.737a4.272 4.272 0 0 1 4.248 4.259v.001a4.213 4.213 0 0 1-8.412.089l-.001-.012v-.042a4.295 4.295 0 0 1 4.159-4.292h.007zM301.859 609.943a4.072 4.072 0 0 1-4.024 4.072h-.003a4.254 4.254 0 0 1-4.189-4.253v-.012.001a4.027 4.027 0 0 1 4.402-3.973l-.016-.001a3.846 3.846 0 0 1 3.828 4.18l.001-.014zM297.857 562.398a4.01 4.01 0 0 1-4.193-4.005c0-.061.002-.121.004-.182v.009a4.273 4.273 0 0 1 4.063-4.072h.009l.063-.001a4.073 4.073 0 0 1 4.068 4.28v-.009l.002.119a3.862 3.862 0 0 1-4.024 3.86h.007zM282.521 558.279a4.166 4.166 0 0 1-4.012 4.119h-.007a4.031 4.031 0 0 1-4.322-4.021v-.054.002-.034a4.17 4.17 0 0 1 3.958-4.166h.01l.061-.001a4.318 4.318 0 0 1 4.314 4.147v.009zM262.878 532.504a3.928 3.928 0 0 1-4.155 4.172l.011.001a4.092 4.092 0 1 1 .15-8.181h-.003l.119-.002a3.88 3.88 0 0 1 3.878 4.018v-.007zM307.451 541.452a4.203 4.203 0 0 1-.128 8.404l-.135-.002h.007a4.203 4.203 0 0 1 .128-8.403l.135.002h-.007zM297.932 536.676a4.092 4.092 0 0 1-.232-8.178h.006a3.874 3.874 0 0 1 4.177 3.827v.002c.122 2.496-1.507 4.288-3.951 4.352zM262.878 558.436a3.862 3.862 0 0 1-3.861 3.989c-.06 0-.119-.002-.179-.004h.009a3.956 3.956 0 0 1-4.165-4.176l-.001.01a4.231 4.231 0 0 1 4.065-4.072h.007a4.131 4.131 0 0 1 4.125 4.259v-.006zM287.896 515.737a4.18 4.18 0 0 1 4.021 4.392v-.01a4.08 4.08 0 1 1-8.145-.442l-.001.01a4.134 4.134 0 0 1 4.124-3.951zM291.916 571.334l.001.084a4.092 4.092 0 0 1-8.182.089v-.004a3.87 3.87 0 0 1 3.858-4.154 3.921 3.921 0 0 1 4.323 3.9l-.001.089v-.004zM244.721 571.305l-.001-.099a3.862 3.862 0 0 1 4.084-3.857l-.01-.001a3.94 3.94 0 0 1 4.136 4.201l.001-.012a4.225 4.225 0 0 1-4.065 4.072h-.007a4.16 4.16 0 0 1-4.136-4.312v.007zM223.862 558.273a3.862 3.862 0 0 1-3.854 4.125h-.034.002a3.921 3.921 0 0 1-4.293-4.026v.006-.052a4.09 4.09 0 0 1 8.182-.056v.002zM238.849 537.2c-1.118-1.013-2.38-1.932-3.229-3.13-.157-.227 1.291-1.647 2.071-2.444a2.866 2.866 0 0 1 1.225-.711l.021-.005c1.391-.395 2.88-2.804 4.178.128a4.138 4.138 0 0 1-2.34 5.43l-.028.009a7.777 7.777 0 0 1-1.391.236l-.029.002zM271.791 517.669c1.001 3.374.145 5.457-2.147 6.155-2.537.768-4.282-.302-5.556-3.771zM350.556 545.758a4.385 4.385 0 0 1-4.371 4.073l-.079-.001h.004a4.338 4.338 0 0 1-3.933-4.287v-.002a4.39 4.39 0 0 1 4.119-4.113l.012-.001a4.453 4.453 0 0 1 4.247 4.323v.006zM385.424 541.446a4.212 4.212 0 0 1-.088 8.418h-.005a4.212 4.212 0 0 1 .088-8.418h.005zM365.922 549.854h-.011a4.183 4.183 0 0 1-4.177-3.963v-.01a4.228 4.228 0 0 1 4.028-4.427h.009l.076-.001a4.201 4.201 0 0 1 .079 8.402h-.004zM404.781 541.452a4.207 4.207 0 0 1 .157 8.407h-.01a4.207 4.207 0 0 1-.157-8.407h.01zM340.916 609.687a4.072 4.072 0 0 1-4.065 4.322h-.009a4.308 4.308 0 0 1-4.183-3.983l-.001-.014a4.072 4.072 0 0 1 4.153-4.241h-.004a3.885 3.885 0 0 1 4.107 3.88v.038-.002zM346.419 593.07a4.097 4.097 0 0 1-.07 8.192l-.073-.001h.003a4.097 4.097 0 1 1 .143-8.191h-.003zM379.949 584.204a4.243 4.243 0 0 1-4.064 4.072h-.009a4.201 4.201 0 1 1 .256-8.396l-.01-.001a4.234 4.234 0 0 1 3.828 4.329v-.006zM360.529 584.204a4.307 4.307 0 0 1-4.299 4.074l-.129-.002h.006a4.206 4.206 0 0 1 .229-8.39h.009a4.295 4.295 0 0 1 4.184 4.293v.026-.002zM336.727 588.283a4.202 4.202 0 0 1 .093-8.402l.098.001h-.005a4.202 4.202 0 0 1-.093 8.402l-.098-.001h.005zM350.556 571.358a4.347 4.347 0 0 1-4.266 4.247h-.004a4.278 4.278 0 0 1-4.101-4.063v-.01l-.001-.061a4.108 4.108 0 0 1 3.937-4.104h.007a4.194 4.194 0 0 1 4.427 3.981v.009zM356.322 562.398a3.88 3.88 0 0 1-4.075-3.876l.002-.109v.005a4.072 4.072 0 0 1 4.128-4.269h-.003c2.22.093 4 1.857 4.119 4.061l.001.011.002.106a4.072 4.072 0 0 1-4.178 4.07h.005zM340.916 558.354a3.899 3.899 0 0 1-3.894 4.074l-.096-.001h.005a4.072 4.072 0 0 1-4.27-4.067l.001-.061v.003a4.315 4.315 0 0 1 4.061-4.131l.011-.001a4.072 4.072 0 0 1 4.182 4.187v-.006zM350.556 520.037a4.227 4.227 0 0 1-4.498 3.95l.012.001a4.075 4.075 0 0 1-3.883-4.068l.002-.151v.007a4.193 4.193 0 0 1 4.146-4.021h.002a4.296 4.296 0 0 1 4.219 4.282v.001zM385.395 567.337a4.22 4.22 0 0 1 4.183 3.956l.001.012a4.346 4.346 0 0 1-4.218 4.299h-.006a4.23 4.23 0 0 1-4.13-4.347v.006a4.074 4.074 0 0 1 4.07-3.928l.107.002h-.005zM419.023 558.471a4.074 4.074 0 0 1-4.07 3.934l-.101-.001h.005a4.195 4.195 0 0 1-4.184-4.194l.001-.061v.003a4.333 4.333 0 0 1 4.201-4.009h.006a4.212 4.212 0 0 1 4.142 4.335v-.006zM399.521 558.197a3.986 3.986 0 0 1-3.87 4.195h-.005c-2.502.14-4.299-1.496-4.346-3.951a4.107 4.107 0 0 1 4.104-4.293h.004a4.279 4.279 0 0 1 4.113 4.038l.001.011zM375.748 536.671a4.091 4.091 0 1 1 .263-8.18h-.007a4.091 4.091 0 1 1-.263 8.18h.007zM375.748 562.398a4.13 4.13 0 0 1-4.072-4.026v-.005a4.322 4.322 0 0 1 4.274-4.224h.002a4.127 4.127 0 0 1 4.008 4.423l.001-.014a3.935 3.935 0 0 1-4.225 3.845l.012.001zM404.566 575.593a4.31 4.31 0 0 1-3.832-4.624l-.001.014a4.036 4.036 0 0 1 4.439-3.629l-.017-.002c2.444.134 3.991 1.984 3.764 4.504a4.146 4.146 0 0 1-4.363 3.734l.011.001zM369.93 571.526a4.155 4.155 0 0 1-4.031 4.072h-.006a4.213 4.213 0 0 1-4.154-4.212l.001-.074v.003-.026a3.962 3.962 0 0 1 4.381-3.94l-.017-.002a3.863 3.863 0 0 1 3.827 4.192l.001-.014zM340.909 532.65a3.88 3.88 0 0 1-4.01 4.027h.006a4.092 4.092 0 1 1 .143-8.181h-.003a3.881 3.881 0 0 1 3.863 4.167l.001-.012zM356.27 536.676a4.092 4.092 0 1 1 .18-8.181h-.004a4.092 4.092 0 0 1-.088 8.182l-.093-.001h.004zM399.521 532.528v.033a4.113 4.113 0 0 1-3.93 4.109h-.009a3.885 3.885 0 0 1-4.27-4.021v.007c0-2.223 1.036-3.764 3.252-4.072 1.914-.238 4.922 2.333 4.957 3.944zM365.939 523.987c-2.327-.052-3.717-1.216-4.154-3.351-.512-2.49.698-3.601 3.159-3.025.722.112 1.37.299 1.981.556l-.056-.021c1.164.582 3.456 0 3.002 2.531-.401 2.223-1.85 3.24-3.933 3.31zM420.885 544.286l5.684 4.538c-.116.337-.238.675-.361 1.012-1.496-.343-3.299-.285-4.392-1.164-1.006-.791-1.246-2.554-1.821-3.893z"/>
</svg>
