<svg xmlns="http://www.w3.org/2000/svg" viewBox="0 0 640 640">
  <path d="M101.64 203.299v-3.296c0-24.294 0-48.588.07-72.882.03-8.355 8.416-16.484 16.791-16.484h426.021c8.571 0 16.966 8.345 16.976 16.896v41.706h61.331c8.129 0 14.306 4.563 16.47 12.377.429 1.639.676 3.523.676 5.462 0 .154-.001.308-.004.461v-.022q.05 129.735 0 259.47c0 9.943-4.604 15.909-13.95 18.083a13.067 13.067 0 0 1-3.039.179l.034.001H428.664c-7.423 0-13.524-4.253-15.924-11.205-.391-1.117-.686-1.853-2.114-1.848-14.697.055-29.388.041-44.079.05a5.27 5.27 0 0 0-.954.221l.037-.011c-.431 12.313 2.324 23.743 9.373 33.936 7.423 10.729 18.288 15.934 30.685 18.434 9.892 2.003 19.926.631 29.894 1.002 2.654.105 5.32.16 7.954.501 2.504.306 3.682 2.039 3.702 4.508.025 4.508.05 9.016 0 13.524-.041 3.216-1.923 5.009-5.174 5.009H222.461c-3.266 0-4.939-1.112-5.194-4.393a119.599 119.599 0 0 1-.356-9.385c0-1.884.042-3.758.126-5.621l-.009.264c.121-2.78 2.654-4.313 6.297-4.333 9.102-.055 18.228.411 27.294-.146 22.07-1.353 40.784-12.317 46.379-36.968 1.057-4.648 1.308-9.483 1.868-14.236.085-.711-.171-1.457-.286-2.324H130.396c-3.812 0-5.735-1.698-5.66-4.969v-.003a4.507 4.507 0 0 1 4.339-4.505h.008c.747-.05 1.503 0 2.254 0h279.566c-.761-1.317-1.864-2.554-2.209-3.978-.461-1.859.857-3.006 2.504-3.796.351-.171.531-1.002.536-1.503.045-3.842.07-7.684 0-11.521a2.626 2.626 0 0 0-1.04-1.693l-.007-.005c-2.76-2.034-2.765-4.604-.066-6.612a3.145 3.145 0 0 0 1.111-2.142l.001-.012c.116-3.416 0-6.842.066-10.264 0-1.302-.035-2.309-1.548-2.955-.836-.356-1.313-1.558-2.079-2.54h-8.516l.311.501c-1.382.957-2.76 2.654-4.153 2.665s-2.825-1.633-4.243-2.554l.351-.681h-5.009c-1.923 0-3.746-.391-5.009 2.074-1.002 2.003-4.453 1.613-5.57-.501-.711-1.338-1.533-1.703-2.9-1.608-.599.041-1.299.064-2.003.064s-1.404-.024-2.098-.069l.094.005c-1.548-.08-2.65.041-3.506 1.793-1.103 2.209-4.508 2.159-5.746-.085-.882-1.593-1.934-1.743-3.401-1.703-2.084.05-4.167 0-5.941.586-1.392.952-2.775 2.634-4.183 2.659s-2.8-1.638-4.203-2.559l.356-.676H132.677c-4.609 0-6.071-1.428-6.081-6.076q-.03-17.031 0-34.061v-2.81h-15.563v2.966c0 18.033 0 36.066-.035 54.098 0 1.533-.171 3.251-.877 4.548-1.002 1.834-2.816 2.905-5.054 2.174-2.154-.696-3.481-2.124-3.446-4.584.05-3.341 0-6.677 0-10.018V352.55H17.333c-8.841 0-17.306-8.341-17.311-17.206q-.05-57.229 0-114.457c0-8.044 6.978-15.989 14.962-17.066 2.069-.304 4.47-.486 6.911-.501h.017q38.199-.055 76.388 0zM50.171 343.052h3.256q91.165 0 182.33.085c5.104 0 9.423-2.46 10.109-8.911a22.595 22.595 0 0 0 .044-2.547l.001.042V254.08c0-3.111 1.543-5.009 4.113-5.204 2.88-.21 4.659 1.317 5.159 4.508a17.341 17.341 0 0 1 .125 2.768l.001-.029c0 16.114.045 32.223 0 48.332-.041 10.679 0 21.364-.406 32.028-.34 8.856-8.646 16.059-17.151 16.059H136.078v33.406h275.674v-96.575c0-3.606 2.003-5.951 4.944-5.936s4.548 2.139 4.548 5.836v118.715h209.349V187.203c0-5.741-3.301-8.516-8.606-8.516q-91.666.135-183.332.055c-.666 0-1.338.03-2.003 0a4.51 4.51 0 0 1-4.388-4.456v-.003c-.091-3.311 1.818-5.009 5.625-5.034h89.247v-25.932H135.912v59.979H208.709c3.386 0 5.756 2.099 5.685 4.929s-2.169 4.563-5.605 4.563H50.171zm317.16-207.927c-.116.18-.226.366-.34.551 2.084 0 4.173-.091 6.246.03 1.472.091 2.294-.271 3.04-1.713 1.287-2.504 4.639-2.816 5.871-.456 1.142 2.194 2.665 2.239 4.598 2.154 1.743-.075 3.506 0 5.294 0 .366-2.109 1.297-3.416 3.547-3.531 2.504-.135 3.476 1.428 3.962 3.531 2.595 0 5.009.041 7.428-.035.571 0 1.553-.336 1.628-.671.501-2.264 2.064-3.246 4.008-2.69 1.407.396 2.54 1.783 3.796 2.73-.13.226-.265.446-.396.666 2.164 0 4.333-.066 6.512.025 1.363.055 2.179-.246 2.845-1.633 1.002-2.124 3.627-2.709 5.21-1.313.882.781 1.473 1.898 2.189 2.855h8.25l-.391-.551c1.187-.971 2.254-2.409 3.602-2.76 1.057-.276 3.296.501 3.561 1.318.797 2.399 2.46 2.003 4.142 2.034h5.726c.336-2.249 1.343-3.481 3.616-3.531 2.404-.05 3.351 1.363 3.782 3.531 2.299 0 4.548-.03 6.792 0 1.238 0 2.003-.141 2.68-1.533.466-.971 2.344-2.049 3.301-1.823 1.572.366 2.91 1.748 4.347 2.7l-.366.596h8.28c.346-.776.69-1.422 1.074-2.042l-.042.072c1.503-2.084 4.723-2.274 5.821-.041 1.002 2.003 2.309 2.174 4.127 2.079s3.661 0 5.575 0c.536-2.003 1.377-3.506 3.771-3.536s3.351 1.398 3.812 3.451h8.816l-.356-.636c1.258-.927 2.394-2.279 3.802-2.68 2.003-.576 3.456.606 4.008 2.725.092.289.304.517.575.628l.007.002c3.716.836 4.067 3.661 3.912 6.838 2.174.391 3.796 1.417 3.967 3.752.196 2.695-2.003 3.326-3.928 4.117v13.69c2.875.466 4.168 2.304 4.077 5.114h8.836c-.226-3.006 1.368-4.609 4.078-5.179 0-3.873-.066-7.544.03-11.216.041-1.648-.185-2.665-2.059-3.286-2.309-.772-2.725-3.802-.912-5.54.781-.747 1.898-1.137 2.85-1.683v-13.709c-3.937-1.167-4.764-2.905-2.79-6.968-1.948-.501-3.782-1.373-5.61-1.373q-211.974-.096-423.948-.041h-.076a8.09 8.09 0 0 0-2.621.433l.058-.017c-4.222 1.503-5.876 4.233-5.876 9.803v70.367c0 .802.096 1.597.146 2.414h17.031v-61.967c0-1.978.146-3.822 2.099-4.969a.97.97 0 0 0 .235-.878l.001.007c-.741-2.179.721-2.83 2.314-3.146 2.67-.531 3.847 1.257 4.689 3.471 2.199 0 4.368-.06 6.512 0 1.257.05 2.003-.216 2.634-1.503 1.282-2.584 4.639-3.121 5.821-.797 1.322 2.59 3.206 2.314 5.304 2.294h4.734c.431-1.964 1.192-3.356 3.346-3.506 2.584-.205 3.727 1.267 4.178 3.506 2.609 0 5.009.045 7.443-.035.571 0 1.537-.351 1.623-.701.531-2.249 2.089-3.231 4.042-2.659 1.413.411 2.54 1.813 3.792 2.77l-.371.561h8.446c.946-1.698 1.608-3.983 4.007-3.346 1.597.426 2.951 1.768 4.408 2.7l-.376.641h8.485l-.391-.571c1.183-.952 2.244-2.324 3.597-2.72 1.002-.296 3.131.411 3.396 1.157.941 2.629 2.85 2.239 4.794 2.209h5.219c.331-2.244 1.332-3.481 3.606-3.531 2.399-.045 3.361 1.352 3.762 3.406.228.051.503.091.784.114l.022.001c2.003 0 4.007-.05 6.011.03 1.283.05 2.003-.216 2.62-1.588a3.512 3.512 0 0 1 3.196-2.064c1.029 0 1.955.444 2.596 1.15l.003.003a15.923 15.923 0 0 1 1.501 2.336l.042.088h8.275c.348-.786.699-1.444 1.092-2.073l-.041.069c1.503-2.099 4.764-2.274 5.815 0 1.002 2.129 2.374 2.109 4.142 2.054s3.661 0 5.566 0c.501-2.028 1.377-3.506 3.777-3.536s3.331 1.417 3.792 3.536h5.329c1.834 0 3.787.456 4.473-2.179.155-.596 1.412-1.123 2.234-1.278 2.645-.501 3.873 1.162 4.458 3.356.184.037.409.067.636.084l.02.001c1.834 0 3.672 0 5.511.025 1.442.041 2.504-.025 3.291-1.743 1.082-2.374 4.623-2.745 5.666-.541 1.272 2.69 3.221 2.274 5.294 2.274h4.458c.377-.851.772-1.571 1.219-2.255l-.037.06c1.503-1.959 5.049-1.969 5.876.251.781 2.099 2.059 1.969 3.632 1.948h6.011c.411-2.064 1.263-3.446 3.552-3.536 2.504-.096 3.471 1.403 3.903 3.536 2.59 0 5.009.045 7.423-.035.566 0 1.473-.346 1.613-.747.706-2.039 2.094-3.276 4.113-2.62 1.467.471 2.599 1.873 3.867 2.86zm263.251 280.784H421.253c0 11.116-.066 22.04.041 32.97a6.902 6.902 0 0 0 5.313 6.658l.047.009c1.503.331 3.136.06 4.714.06 1.123-1.442 2.559-3.116 4.008-3.141 1.358 0 2.74 1.729 4.113 2.695 1.909.596 4.158.551 6.407.616 1.277.035 2.034-.21 2.684-1.563 1.178-2.454 4.668-2.76 5.856-.396 1.002 2.003 2.269 2.003 3.947 1.948a37.564 37.564 0 0 1 4.104.005l-.096-.004c1.217.091 1.864-.301 2.469-1.447 1.308-2.504 4.778-3.006 5.865-.686 1.137 2.414 2.805 2.104 4.653 2.114h5.244l-.391-.731c1.408-.922 2.82-2.574 4.218-2.565s2.765 1.703 4.142 2.659c-.11.191-.221.381-.336.571h8.736l-.331-.596c1.377-.946 2.785-2.68 4.128-2.629 1.503.06 2.93 1.738 4.393 2.709a16.92 16.92 0 0 0 4.537.605c.668 0 1.326-.037 1.974-.111l-.079.007a3.696 3.696 0 0 0 2.332-1.491l.007-.012c1.503-2.269 4.784-2.79 6.011-.466 1.117 2.129 2.565 2.144 4.403 2.049a32.217 32.217 0 0 1 3.335.004l-.079-.003c1.297.066 2.174-.1 2.896-1.542 1.207-2.419 4.648-2.855 5.701-.616 1.192 2.559 3.006 2.114 4.889 2.144h5.009a28.38 28.38 0 0 1-.34-.601c1.373-.966 2.76-2.715 4.113-2.69 1.472.03 2.916 1.703 4.368 2.659l-.34.631c2.254 0 4.508-.055 6.752 0 1.297.045 2.003-.256 2.67-1.583 1.208-2.454 4.673-2.736 5.851-.351 1.002 2.003 2.299 2.003 3.962 1.923a29.355 29.355 0 0 1 3.59.004l-.083-.004c1.442.11 2.314-.205 3.061-1.702 1.192-2.389 4.824-2.549 5.941-.221.907 1.884 2.104 2.003 3.737 1.919 1.418-.066 2.841-.041 4.258 0 1.002 0 1.658-.07 2.254-1.272 1.342-2.725 4.684-3.156 5.971-.676 1.077 2.079 2.464 1.964 4.158 1.948h5.746l-.361-.676c1.302-.941 2.67-2.715 3.887-2.615 1.613.135 3.101 1.733 4.648 2.7.761.591 1.848.591 2.93.591 4.153 0 6.733-1.804 7.288-5.881.501-3.682.346-7.464.366-11.2 0-.501-.591-1.082-1.002-1.538-1.818-2.003-1.793-3.721.08-5.65.376-.386.922-.857.927-1.293.066-4.694.041-9.423.041-14.246zm-321.863 36.405c-.751 6.131-1.002 12.047-2.269 17.742-3.381 15.317-11.02 27.941-24.84 36.13-9.423 5.731-20.812 9.132-32.994 9.152h-.005c-7.323.045-14.652 0-22.07 0v4.363h211.083v-4.363c-6.512 0-12.873-.116-19.204.03a67.67 67.67 0 0 1-22.233-3.178l.479.132c-11.105-3.431-20.718-9.177-27.866-18.534-8.581-11.23-12.368-24.094-12.633-38.099v-3.386zM9.503 331.291v3.126c.035 4.939 3.702 8.626 8.601 8.636 2.755 0 5.511.075 8.259-.05a3.538 3.538 0 0 0 2.228-1.046l.001-.001c1.873-2.003 4.322-2.054 6.181.045.381.431.932.977 1.428 1.002 2.059.116 4.133.045 6.286.045v-3.186l-.576.376c-.946-1.352-2.359-2.59-2.725-4.083-.586-2.379 1.363-3.396 3.396-3.912 0-2.504.11-4.854-.066-7.172a3.106 3.106 0 0 0-1.371-2.091l-.012-.007c-2.549-1.453-3.006-4.834-.431-6.226 1.909-1.002 2.003-2.254 1.889-3.923a33.572 33.572 0 0 1 0-3.251c.05-1.442-.025-2.504-1.733-3.301-2.354-1.107-2.65-4.659-.411-5.73 2.504-1.192 2.129-2.955 2.134-4.874v-5.009l-.616.381c-.962-1.217-2.339-2.309-2.74-3.682-.281-.957.541-3.111 1.287-3.331 2.449-.716 2.064-2.414 2.069-4.113v-5.716l-.701.396c-.932-1.257-2.334-2.394-2.7-3.802-.646-2.504 1.478-3.506 3.401-4.258v-4.889c0-1.903.556-3.967-2.169-4.839-.666-.216-1.473-2.003-1.217-2.68.596-1.608 1.793-3.006 2.75-4.458l.641.351v-6.011c0-1.417 0-2.504-1.688-3.316-2.435-1.157-2.65-4.849-.336-5.906 2.174-1.002 2.054-2.419 2.003-4.148-.03-1.829 0-3.661 0-5.511l-.666.376c-.946-1.352-2.364-2.59-2.73-4.088-.586-2.379 1.373-3.391 3.231-3.892v-4.749c-2.003 0-3.812-.07-5.63.041-.541.03-1.367.441-1.528.872-.691 1.898-2.003 3.166-3.902 2.57-1.503-.466-2.7-1.818-4.037-2.78l.406-.706c-2.504 0-5.009.176-7.514-.03-6.812-.526-12.423 5.32-10.349 12.898 2.219.105 3.737 1.037 3.752 3.586 0 2.67-1.613 3.566-4.007 3.767v8.611c1.944.696 3.972 1.297 4.007 3.962.03 2.75-1.934 3.506-3.982 4.058v8.646c2.079.201 3.586.907 3.927 3.151.476 3.106-1.729 3.932-3.952 4.659v8.691c2.234.185 3.903.891 4.008 3.506.1 2.83-1.663 3.677-4.007 3.852v8.686c2.139.731 4.217 1.373 4.007 4.293-.191 2.504-1.859 3.241-4.007 3.536v8.611c1.973.566 3.837 1.153 4.007 3.707.191 2.941-2.054 3.566-4.007 4.368v8.59c2.369.045 3.942 1.002 4.007 3.622.05 2.709-1.678 3.526-4.097 3.752z"/>
  <path d="M344.109 419.089c-.055 6.246-5.646 11.711-11.856 11.606-6.126-.105-11.701-5.575-11.451-11.696.301-7.313 5.094-11.621 11.646-11.621 6.957-.005 11.356 5.199 11.661 11.711zM371.388 409.648a3.828 3.828 0 0 1-3.712-3.825v-.017.001a3.946 3.946 0 0 1 3.711-3.641l.01-.001c1.928 0 3.842 2.003 3.757 3.897a3.893 3.893 0 0 1-3.761 3.586h-.006zM375.691 417.026v-.012a3.831 3.831 0 0 1 3.69-3.829h.007a4.009 4.009 0 0 1 3.775 3.599l.001.017c.085 1.848-1.903 3.867-3.807 3.867a3.844 3.844 0 0 1-3.666-3.632l-.001-.009zM363.023 413.184a3.74 3.74 0 0 1 .104 7.478h-.009c-1.738.055-4.007-2.164-3.912-3.852.08-1.793 2.014-3.627 3.817-3.627zM371.504 431.191a3.9 3.9 0 0 1-3.816-3.489l-.001-.017c-.08-1.853 1.953-3.957 3.771-3.912 1.713.041 3.682 2.034 3.712 3.767.02 1.853-1.748 3.611-3.666 3.652zM354.943 409.648c-1.783-.066-3.721-2.003-3.712-3.732 0-1.798 2.199-3.857 3.977-3.746a3.852 3.852 0 0 1 3.427 3.824l-.001.061v-.003c-.06 1.928-1.843 3.666-3.691 3.597zM391.394 427.5a3.506 3.506 0 0 1-3.469 3.691h-.001l-.094.001a3.631 3.631 0 0 1-3.627-3.454v-.008a3.717 3.717 0 0 1 3.569-3.931h.007c1.798-.01 3.602 1.838 3.616 3.702zM395.748 442.211a3.633 3.633 0 0 1-3.506-3.63v-.012.001c0-2.099 1.793-3.942 3.691-3.827 1.788.105 3.421 2.003 3.381 3.877-.07 2.149-1.528 3.627-3.566 3.591zM407.724 427.605v.05a3.54 3.54 0 0 1-3.541 3.541h-.001c-2.104 0-3.391-1.373-3.506-3.572-.15-2.419 1.647-3.547 3.401-3.782 1.948-.246 3.636 1.592 3.647 3.762zM391.425 405.841a3.9 3.9 0 0 1-3.489 3.806l-.017.001c-1.818.105-3.641-1.618-3.721-3.506-.08-2.054 1.628-3.957 3.556-3.957 1.809-.015 3.636 1.813 3.672 3.657zM400.671 405.821c.03-1.934 1.733-3.677 3.561-3.652s3.561 1.903 3.506 3.962c-.06 1.889-1.868 3.611-3.682 3.506a3.69 3.69 0 0 1-3.386-3.823v.007zM399.293 416.886c0 1.969-1.643 3.757-3.506 3.782s-3.547-1.754-3.566-3.716 1.643-3.742 3.506-3.767a3.693 3.693 0 0 1 3.566 3.689v.012-.001zM383.169 438.469c.055 1.733-1.618 3.616-3.326 3.737-1.272.091-4.077-2.68-4.137-4.083-.06-1.503 2.049-3.406 3.712-3.386s3.697 2.079 3.752 3.732zM313.824 272.369c3.677-10.374 7.233-20.367 10.764-30.365 1.503-4.188 2.841-5.174 7.313-5.194 2.084 0 4.173-.025 6.256 0 3.271.055 4.834 1.222 5.956 4.543q5.039 14.898 10.018 29.809c.096.276.256.531.621 1.278 1.909-5.384 3.647-10.294 5.384-15.208q2.755-7.789 5.511-15.588c1.032-2.905 2.941-4.278 5.956-4.288h13.77c5.009 0 7.619 3.556 5.901 8.341-4.703 13.084-9.517 26.127-14.306 39.181q-5.66 15.403-11.341 30.796c-1.613 4.368-2.966 5.315-7.514 5.315h-7.744c-3.476 0-5.169-1.107-6.316-4.433-3.191-9.237-6.301-18.498-9.447-27.75-.1-.286-.241-.551-.601-1.373-1.748 4.834-3.336 9.172-4.879 13.524-1.873 5.269-3.691 10.554-5.566 15.824-1.002 2.866-2.96 4.193-6.011 4.208-2.755 0-5.511-.18-8.259.045-4.158.34-6.121-2.003-7.198-5.099l-9.918-28.672q-7.013-20.282-14.026-40.573c-.361-1-.592-2.156-.64-3.358l-.001-.023c-.1-3.577 2.224-5.926 5.806-5.946 4.759-.025 9.517 0 14.271 0 3.006 0 5.009 1.377 5.951 4.292q4.803 14.526 9.542 29.052c.15.456.391.882.747 1.663zm-30.335-29.018c8.31 24.044 16.53 47.792 24.784 71.63 2.409 0 4.749-.13 7.067.041 1.818.13 2.625-.546 3.206-2.234a5988.226 5988.226 0 0 1 13.585-38.65c.616-1.738 1.308-3.456 2.104-5.555l15.659 46.319h9.517l26.317-71.534c-4.288 0-8.209.085-12.127-.041-1.643-.05-2.314.571-2.825 2.054q-5.511 15.984-11.141 31.918c-1.618 4.543-3.266 9.051-5.064 14.06-.451-1.127-.716-1.703-.916-2.304q-6.758-20.061-13.524-40.128c-2.074-6.206-2.054-6.216-8.446-6.086a8.066 8.066 0 0 0-1.003.129l.051-.008c-5.691 16.029-11.365 32.023-17.267 48.663-5.159-15.759-10.104-30.731-14.922-45.748-.646-2.003-1.567-2.695-3.657-2.595-3.636.201-7.318.07-11.401.07zM123.484 272.379c3.672-10.364 7.227-20.362 10.76-30.365 1.468-4.163 2.866-5.185 7.313-5.204h6.011c3.566.05 5.059 1.132 6.206 4.508l10.018 29.789c.096.281.226.551.566 1.392 1.754-4.844 3.341-9.177 4.884-13.524 2.039-5.741 4.007-11.491 6.056-17.231 1.097-3.101 2.916-4.408 6.111-4.418h13.524c5.154 0 7.749 3.552 5.981 8.466-3.953 11.02-8.015 21.949-12.062 32.919q-6.767 18.413-13.524 36.836c-1.678 4.568-2.88 5.409-7.679 5.409h-7.779c-3.291 0-5.009-1.172-6.121-4.353-3.206-9.321-6.352-18.669-9.517-28.001a10.237 10.237 0 0 0-.62-1.112l.024.041c-1.533 4.217-2.955 8.074-4.333 11.947-2.039 5.735-4.037 11.486-6.066 17.221-1.032 2.9-2.93 4.242-5.981 4.258-2.841 0-5.691-.176-8.516.045-3.682.29-5.821-1.673-7.013-5.049q-5.545-15.959-11.02-31.947-6.447-18.659-12.904-37.308c-.791-2.304-1.503-4.879.29-6.827a7.965 7.965 0 0 1 4.805-2.425l.039-.004c4.653-.331 9.342-.121 14.026-.116 3.386 0 5.194 1.272 6.266 4.508q4.778 14.396 9.517 28.812c.135.491.371.927.736 1.733zm45.583 42.517 26.317-71.544c-4.262 0-8.19.07-12.107-.03-1.593-.045-2.304.501-2.83 2.003-3.652 10.659-7.414 21.284-11.155 31.913-1.603 4.548-3.246 9.086-5.044 14.116-.456-1.117-.721-1.693-.922-2.289q-6.757-20.071-13.499-40.153c-2.074-6.196-2.049-6.206-8.441-6.076a8.025 8.025 0 0 0-1.002.129l.051-.008c-5.691 16.029-11.361 32.023-17.226 48.548a69.465 69.465 0 0 1-.962-2.75c-4.739-14.436-9.453-28.882-14.251-43.298-.276-.822-1.212-2.003-1.884-2.003-4.233-.185-8.476-.096-12.948-.096 8.305 23.998 16.53 47.767 24.79 71.63 2.294 0 4.554-.141 6.788.041 2.003.166 2.896-.501 3.552-2.439 4.267-12.448 8.666-24.855 13.023-37.262.751-2.139 1.623-4.238 2.579-6.728 5.32 15.748 10.479 30.976 15.668 46.304zM503.167 272.484c3.672-10.314 7.213-20.227 10.735-30.144 1.633-4.613 2.825-5.511 7.559-5.511 2.003 0 4.008-.025 6.011 0 3.281.05 4.929 1.267 6.011 4.448q5.009 14.817 9.988 29.644c.256.613.498 1.107.764 1.586l-.042-.083c3.506-9.958 6.928-19.616 10.314-29.288 1.708-4.874 2.951-5.785 8.165-5.785h11.771c5.511 0 8.015 3.661 6.101 8.946q-9.091 24.795-18.208 49.59c-2.469 6.717-4.874 13.459-7.389 20.161-1.313 3.506-3.321 5.265-7.058 4.979-2.736-.205-5.511-.035-8.259-.041-3.371 0-5.079-1.238-6.216-4.559q-4.753-13.891-9.477-27.8c-.075-.216-.201-.411-.541-1.103-.912 2.474-1.693 4.563-2.444 6.667-2.654 7.434-5.285 14.877-7.954 22.31-1.197 3.326-2.85 4.477-6.286 4.483h-7.764c-4.709 0-5.961-.912-7.564-5.511q-5.951-17.116-11.911-34.237-6.011-17.361-12.052-34.733c-1.467-4.238-.351-7.348 3.096-8.751a3.913 3.913 0 0 1 1.399-.365l.013-.001c5.34 0 10.689-.13 16.029.03 2.574.08 4.158 1.813 4.949 4.222q4.759 14.386 9.517 28.787c.155.536.376 1.067.747 2.054zm20.382-3.907c.426 1.183.676 1.848.902 2.504 4.684 13.875 9.342 27.755 14.096 41.6.306.897 1.288 2.119 2.059 2.194 2.715.265 5.48.1 8.14.1l26.357-71.63c-4.433 0-8.516-.085-12.597.085-.736.03-1.809.971-2.079 1.729-4.217 11.681-8.325 23.403-12.467 35.109-1.267 3.577-2.579 7.138-4.047 11.2-4.929-14.606-9.658-28.591-14.366-42.578-2.089-6.206-2.074-6.211-8.516-6.011-.246 0-.501.066-.866.116-5.671 15.984-11.361 32.003-17.267 48.643-5.445-16.575-10.639-32.399-15.824-48.187h-14.161l24.76 71.569c2.504 0 5.009-.105 7.514.041 1.538.091 2.184-.541 2.654-1.898q5.511-15.844 11.116-31.662c1.463-4.168 2.955-8.325 4.593-12.923zM546.971 157.186a3.823 3.823 0 0 1-3.493 3.776l-.014.001c-1.864.11-3.942-1.818-3.947-3.661s1.754-3.552 3.697-3.591a3.798 3.798 0 0 1 3.756 3.462l.001.014zM535.14 128.188c-1.889-.03-3.702-1.804-3.652-3.572.055-1.919 1.928-3.531 4.007-3.466a3.68 3.68 0 0 1 3.447 3.669l-.001.055v-.003c-.07 2.003-1.638 3.351-3.802 3.316zM502.481 128.183c-2.369-.035-3.652-1.362-3.572-3.697a3.636 3.636 0 0 1 7.258.288v.002c-.041 2.049-1.543 3.436-3.687 3.406zM436.937 128.188c-2.164-.025-3.641-1.433-3.647-3.476a3.597 3.597 0 0 1 3.591-3.561c2.104 0 3.942 1.718 3.873 3.632-.066 1.779-1.903 3.431-3.817 3.406zM420.592 128.183c-1.944 0-3.787-1.647-3.822-3.456s1.748-3.541 3.721-3.577l.066-.001a3.69 3.69 0 0 1 3.685 3.466l.001.01c.055 2.003-1.512 3.536-3.652 3.556zM322.269 128.183c-2.194 0-3.657-1.362-3.687-3.416v-.051a3.567 3.567 0 0 1 3.503-3.566h.003c2.134-.025 3.952 1.638 3.912 3.577-.005 1.834-1.809 3.466-3.732 3.456zM207.486 128.188c-2.194-.035-3.611-1.403-3.611-3.506v-.005a3.547 3.547 0 0 1 3.547-3.547h.048-.002c2.124 0 3.952 1.729 3.857 3.647-.11 1.843-1.893 3.441-3.837 3.411zM174.586 128.188c-2.199-.035-3.451-1.412-3.356-3.677s1.417-3.436 3.716-3.361c2.119.07 3.446 1.533 3.361 3.712s-1.368 3.366-3.721 3.326zM240.17 128.192c-1.939 0-3.697-1.723-3.657-3.556a3.699 3.699 0 0 1 3.76-3.506h-.004a3.505 3.505 0 0 1 3.657 3.47v.001c.041 2.244-1.403 3.611-3.757 3.591zM158.237 128.178c-2.309-.066-3.506-1.293-3.451-3.597.035-2.114 1.503-3.476 3.657-3.431s3.506 1.403 3.476 3.641-1.412 3.451-3.682 3.386zM273.13 128.188c-2.344 0-3.591-1.183-3.636-3.431a3.351 3.351 0 0 1 3.515-3.606h-.008c2.254-.025 3.606 1.263 3.652 3.471s-1.322 3.566-3.522 3.566zM354.908 128.188a3.52 3.52 0 0 1 .033-7.038h.034-.001a3.506 3.506 0 0 1 3.652 3.454v.002c.05 2.254-1.343 3.591-3.716 3.581zM387.842 128.183c-2.344 0-3.597-1.182-3.641-3.426a3.385 3.385 0 0 1 3.513-3.605h-.007c2.239 0 3.632 1.302 3.672 3.476s-1.343 3.561-3.536 3.556zM125.412 128.188c-1.919-.03-3.687-1.788-3.611-3.597a3.72 3.72 0 0 1 3.707-3.443l.1.001h-.005l.08-.001a3.537 3.537 0 0 1 3.536 3.506v.001c.02 2.219-1.438 3.572-3.807 3.531zM469.636 128.192h-.046a3.581 3.581 0 0 1-3.581-3.502v-.004c0-2.003 1.583-3.506 3.682-3.506a3.476 3.476 0 0 1 3.652 3.445v.001c.041 2.249-1.322 3.572-3.707 3.566zM543.284 139.168c-1.939 0-3.716-1.583-3.792-3.391s1.693-3.561 3.586-3.606c2.149-.05 3.907 1.542 3.892 3.506a3.583 3.583 0 0 1-3.581 3.493l-.112-.001h.005zM518.926 128.183c-2.324.025-3.506-1.177-3.506-3.506s1.207-3.506 3.506-3.541 3.506 1.302 3.536 3.506c-.025 2.304-1.232 3.516-3.536 3.541zM486.211 128.188a3.713 3.713 0 0 1-3.821-3.362l-.001-.015c-.096-1.798 1.647-3.606 3.531-3.661 2.079-.06 3.937 1.583 3.952 3.506s-1.718 3.506-3.661 3.531zM404.062 128.188c-2.249-.03-3.441-1.328-3.371-3.657s1.358-3.441 3.661-3.381c2.174.06 3.446 1.442 3.381 3.672s-1.337 3.401-3.672 3.366zM371.463 128.192l-.105.001a3.693 3.693 0 0 1-3.681-3.405l-.001-.013c-.066-1.818 1.668-3.581 3.556-3.627 2.074-.045 3.933 1.628 3.928 3.531-.01 1.823-1.773 3.497-3.697 3.511zM305.729 128.188c-1.914-.025-3.737-1.829-3.661-3.611s1.873-3.441 3.862-3.426a3.697 3.697 0 0 1 3.611 3.618v.004c-.045 1.964-1.702 3.446-3.812 3.416zM289.429 128.183c-2.259 0-3.506-1.267-3.471-3.552s1.293-3.506 3.577-3.481c2.169 0 3.506 1.397 3.481 3.581s-1.262 3.446-3.586 3.451zM141.993 128.188a3.612 3.612 0 0 1-3.732-3.449v-.008a3.712 3.712 0 0 1 3.591-3.581h.006c2.079-.025 3.923 1.673 3.882 3.581-.035 1.829-1.829 3.456-3.746 3.456zM256.751 128.192a3.636 3.636 0 0 1-3.781-3.401l-.001-.01c-.066-1.838 1.648-3.586 3.552-3.632 2.069-.045 3.933 1.628 3.933 3.531-.005 1.804-1.788 3.497-3.702 3.511zM191.092 128.198c-1.928 0-3.757-1.743-3.737-3.547s1.813-3.506 3.787-3.506a3.712 3.712 0 0 1 3.691 3.539v.008a3.592 3.592 0 0 1-3.75 3.505h.008zM456.823 124.616c.03 2.344-1.147 3.561-3.446 3.566s-3.541-1.197-3.556-3.476 1.222-3.536 3.461-3.556 3.506 1.153 3.541 3.466zM338.644 128.183c-2.304 0-3.506-1.212-3.506-3.506s1.222-3.506 3.481-3.531 3.506 1.172 3.506 3.506-1.178 3.531-3.481 3.531zM227.398 124.721c0 2.284-1.247 3.506-3.556 3.461s-3.471-1.278-3.436-3.591 1.267-3.466 3.566-3.441 3.441 1.237 3.426 3.572zM571.044 444.986a4.012 4.012 0 0 1 3.636-3.746l.016-.001c1.928-.066 3.857 1.853 3.832 3.817a3.743 3.743 0 0 1-7.484-.035v-.037.003zM463.82 445.016a3.743 3.743 0 0 1-7.484 0 4.011 4.011 0 0 1 3.589-3.781l.017-.001c1.919-.105 3.867 1.813 3.877 3.782zM574.831 419.691a3.843 3.843 0 0 1 3.696 3.585l.001.012c.03 1.909-1.923 3.912-3.782 3.882s-3.792-2.104-3.697-3.967a3.851 3.851 0 0 1 3.779-3.511h.003zM460.164 419.691a3.844 3.844 0 0 1 3.676 3.611l.001.01c0 1.868-2.003 3.907-3.817 3.852-1.889-.055-3.777-2.114-3.666-4.007a3.876 3.876 0 0 1 3.804-3.466h.002zM525.533 448.723a3.83 3.83 0 0 1-3.576-3.948v.007c.105-1.923 1.914-3.627 3.757-3.541 1.713.08 3.697 2.079 3.716 3.742.02 1.884-1.964 3.787-3.897 3.742zM512.914 445.092a3.844 3.844 0 0 1-3.643 3.631h-.009c-2.003 0-3.898-1.898-3.822-3.807.07-1.813 2.249-3.802 4.007-3.672a3.865 3.865 0 0 1 3.466 3.841v.006zM627.623 444.886v.012a3.828 3.828 0 0 1-3.685 3.824h-.007a4.01 4.01 0 0 1-3.77-3.584l-.001-.017c-.085-1.754 2.003-3.877 3.812-3.882a3.844 3.844 0 0 1 3.651 3.637l.001.009zM509.117 419.696a3.8 3.8 0 0 1 3.796 3.723v.004a3.89 3.89 0 0 1-3.568 3.741l-.014.001c-1.729.07-3.912-2.069-3.898-3.817a3.93 3.93 0 0 1 3.67-3.651l.011-.001zM525.703 419.691a3.92 3.92 0 0 1 3.716 3.603l.001.013c.055 1.729-2.119 3.907-3.857 3.862a3.899 3.899 0 0 1-3.611-3.698v-.009a3.801 3.801 0 0 1 3.749-3.771h.003zM579.059 434.282a3.825 3.825 0 0 1 3.948-3.567H583c1.919.105 3.622 1.909 3.536 3.742-.075 1.693-2.094 3.702-3.737 3.721-1.864.02-3.787-1.984-3.742-3.897zM520.924 434.302c.045 1.923-1.889 3.917-3.746 3.877-1.643-.041-3.672-2.074-3.732-3.737-.066-1.838 1.643-3.632 3.561-3.727l.112-.001a3.81 3.81 0 0 1 3.804 3.578l.001.01zM464.351 434.056a3.907 3.907 0 0 1 4.181-3.34l-.014-.001c1.898.235 3.536 2.214 3.301 3.978s-2.379 3.602-3.967 3.461c-1.969-.171-3.682-2.184-3.501-4.097zM627.623 423.457a3.9 3.9 0 0 1-3.594 3.711l-.013.001c-1.733.045-3.912-2.129-3.862-3.857a3.945 3.945 0 0 1 3.701-3.621l.01-.001a3.793 3.793 0 0 1 3.757 3.766v.001zM566.401 430.711a3.722 3.722 0 0 1 3.616 3.679v.002a3.854 3.854 0 0 1-3.543 3.771l-.013.001c-1.743.055-3.942-2.174-3.852-3.912a3.844 3.844 0 0 1 3.79-3.541h.003zM529.966 434.317a3.748 3.748 0 0 1 3.699-3.606h.003a3.92 3.92 0 0 1 3.736 3.603l.001.013c.041 1.723-2.234 3.937-3.942 3.832a3.842 3.842 0 0 1-3.497-3.821v-.021.001zM451.649 430.711a3.751 3.751 0 0 1 3.666 3.636v.006c.03 2.039-1.843 3.933-3.771 3.817-1.698-.105-3.712-2.244-3.652-3.877a3.874 3.874 0 0 1 3.752-3.581h.005zM443.714 448.718c-1.838.025-3.672-1.748-3.746-3.616s2.003-3.907 3.812-3.862a3.83 3.83 0 0 1 3.506 3.781v.001a3.78 3.78 0 0 1-3.561 3.697l-.009.001zM472.862 423.021a3.63 3.63 0 1 1 7.232.615l.001-.013c-.141 1.813-2.154 3.672-3.837 3.541a3.872 3.872 0 0 1-3.395-4.157l-.001.014zM487.974 434.517c-.041 1.873-1.878 3.716-3.627 3.641a3.786 3.786 0 0 1-3.471-4.055l-.001.012a3.654 3.654 0 0 1 3.784-3.4h-.007c2.014.085 3.371 1.638 3.321 3.802zM497.301 434.302c.045-2.164 1.503-3.622 3.541-3.591a3.631 3.631 0 0 1 3.556 3.626c0 2.124-1.758 3.933-3.687 3.832-1.788-.091-3.446-1.973-3.411-3.867zM604.069 423.277l-.001-.077a3.506 3.506 0 0 1 3.633-3.504h-.006a3.674 3.674 0 0 1 3.395 3.829v-.008c-.055 1.959-1.838 3.742-3.647 3.652s-3.416-1.928-3.376-3.892zM594.908 423.428c0 1.703-2.034 3.732-3.716 3.742-1.959 0-3.682-1.864-3.616-3.937a3.754 3.754 0 0 1 3.731-3.536h.001a3.885 3.885 0 0 1 3.601 3.724v.007zM602.752 434.338c.03 1.829-1.738 3.762-3.506 3.832-1.939.075-3.661-1.748-3.661-3.873a3.636 3.636 0 0 1 3.616-3.586h.048a3.506 3.506 0 0 1 3.503 3.632v-.006zM615.57 430.711a3.632 3.632 0 0 1 3.536 3.631v.012-.001c0 2.114-1.783 3.933-3.697 3.817-1.804-.116-3.421-1.964-3.381-3.877.045-2.179 1.488-3.616 3.541-3.581zM562.004 423.342v.022a3.813 3.813 0 0 1-3.492 3.799l-.014.001c-1.773.091-3.877-2.003-3.827-3.857a3.833 3.833 0 0 1 3.695-3.611h.007a3.738 3.738 0 0 1 3.631 3.642v.004zM545.509 423.477c0 1.919-1.798 3.752-3.581 3.687-1.859-.066-3.451-1.848-3.446-3.852a3.636 3.636 0 0 1 3.599-3.616h.003c2.019.03 3.441 1.608 3.426 3.782zM476.193 448.718a3.848 3.848 0 0 1-3.32-4.193l-.001.016c.201-1.788 2.003-3.406 3.727-3.301 1.884.116 3.672 2.214 3.476 4.082-.216 1.984-2.009 3.556-3.882 3.396zM562.004 445.231a3.783 3.783 0 0 1-3.771 3.506h-.005c-1.838-.105-3.606-2.003-3.506-3.822s2.003-3.677 3.757-3.657c1.939.005 3.627 1.903 3.526 3.972zM591.261 448.723a3.803 3.803 0 0 1-3.691-3.576l-.001-.01-.001-.063a3.859 3.859 0 0 1 3.377-3.828l.019-.002c1.788-.135 3.928 1.893 3.937 3.737s-1.838 3.687-3.641 3.742zM489.351 423.313c.035-2.159 1.548-3.687 3.586-3.616a3.678 3.678 0 0 1 3.447 3.669l-.001.107v-.005c-.05 2.003-1.788 3.757-3.611 3.702s-3.446-1.898-3.421-3.857zM443.954 419.696a3.796 3.796 0 0 1 3.34 3.941v-.008c-.121 1.948-1.939 3.657-3.767 3.536s-3.716-2.324-3.506-4.123a3.715 3.715 0 0 1 3.943-3.345l-.011-.001zM430.791 423.477c0 1.923-1.779 3.746-3.572 3.687s-3.456-1.853-3.446-3.842a3.647 3.647 0 0 1 3.589-3.627h.003c1.984.025 3.441 1.638 3.426 3.782zM438.78 434.442c0 1.964-1.647 3.702-3.506 3.721s-3.556-1.859-3.506-3.947v-.042a3.466 3.466 0 0 1 3.614-3.463h-.007c2.014.066 3.426 1.618 3.406 3.732zM553.488 434.447c0 1.973-1.723 3.762-3.552 3.712s-3.456-1.823-3.441-3.827a3.476 3.476 0 0 1 3.56-3.621h-.004c2.028.03 3.456 1.578 3.436 3.737zM430.791 444.957c.001.037.003.079.003.123a3.647 3.647 0 0 1-3.403 3.639l-.011.001a3.718 3.718 0 0 1-3.606-3.559v-.007c-.035-2.079 1.638-3.933 3.536-3.912 1.798.015 3.471 1.804 3.481 3.716zM489.357 444.821c.05-1.898 1.818-3.661 3.611-3.581 1.909.085 3.506 1.973 3.416 4.047a3.757 3.757 0 0 1-3.495 3.431l-.011.001c-2.044.015-3.572-1.677-3.522-3.897zM545.509 445.011l.001.069a3.642 3.642 0 0 1-3.469 3.638h-.008a3.718 3.718 0 0 1-3.551-3.616v-.004c0-2.069 1.698-3.912 3.602-3.857 1.809.05 3.436 1.838 3.426 3.771zM611.092 445.011a3.723 3.723 0 0 1-3.454 3.706l-.012.001a3.602 3.602 0 0 1-3.556-3.601v-.021.001c-.035-2.069 1.677-3.917 3.581-3.857 1.809.055 3.436 1.838 3.441 3.771zM28.056 311.299v-.007a3.813 3.813 0 0 1 3.493-3.799l.014-.001c1.919-.08 3.962 1.868 3.937 3.752 0 1.673-2.079 3.702-3.777 3.732-1.868.03-3.622-1.729-3.666-3.677zM28.056 245.526c.06-1.944 1.834-3.702 3.687-3.647 1.688.045 3.742 2.109 3.752 3.757 0 1.903-2.003 3.822-3.958 3.721a3.82 3.82 0 0 1-3.481-3.802v-.032.001zM28.056 262.005a3.723 3.723 0 0 1 3.685-3.606h.001a3.843 3.843 0 0 1 3.731 3.58l.001.012c.045 1.763-2.179 3.937-3.917 3.822a3.815 3.815 0 0 1-3.501-3.799v-.008.001zM24.544 254.02c0 1.944-1.553 3.742-3.366 3.837s-3.652-1.773-3.641-3.837l-.001-.08a3.55 3.55 0 0 1 3.505-3.551h.002c2.024-.01 3.471 1.498 3.501 3.632zM24.544 286.755c0 2.274-1.247 3.636-3.406 3.682a3.366 3.366 0 0 1-3.601-3.513v.007c0-2.184 1.363-3.707 3.436-3.767s3.561 1.457 3.572 3.591zM31.688 298.451a3.698 3.698 0 0 1-3.632-3.649v-.002a3.803 3.803 0 0 1 3.545-3.751l.012-.001c1.783-.06 3.937 2.109 3.857 3.873a3.795 3.795 0 0 1-3.782 3.531zM24.54 319.639v.033a3.506 3.506 0 0 1-7.012.034v-.001c-.045-2.229 1.438-3.752 3.606-3.702s3.401 1.402 3.406 3.636zM24.544 237.566c0 2.134-1.383 3.707-3.356 3.782h-.048a3.605 3.605 0 0 1-3.603-3.753v.007c0-1.934 1.688-3.712 3.506-3.727s3.486 1.793 3.501 3.691zM31.748 274.928l.055-.001a3.671 3.671 0 0 1 3.666 3.467l.001.009c0 1.868-1.673 3.506-3.666 3.506-2.289.025-3.802-1.422-3.746-3.581.055-1.999 1.563-3.411 3.691-3.401zM31.738 331.141c-2.169 0-3.641-1.382-3.682-3.441l-.001-.067a3.617 3.617 0 0 1 3.501-3.615h.006c2.144-.035 3.928 1.588 3.928 3.581-.015 1.773-1.884 3.541-3.752 3.541zM31.728 232.832l-.057.001a3.617 3.617 0 0 1-3.615-3.501v-.006c-.05-2.109 1.322-3.506 3.506-3.606 2.003-.075 3.947 1.702 3.903 3.591a3.714 3.714 0 0 1-3.707 3.522h-.032.001zM24.544 303.209c0 2.003-1.568 3.707-3.431 3.752s-3.541-1.683-3.577-3.602c-.041-2.079 1.638-3.912 3.552-3.882s3.451 1.773 3.456 3.732zM21.074 217.795c2.299 0 3.506 1.222 3.466 3.547s-1.222 3.506-3.506 3.476-3.481-1.267-3.476-3.536 1.212-3.491 3.516-3.486zM24.535 270.476c0 2.299-1.227 3.506-3.552 3.451s-3.476-1.252-3.446-3.566 1.272-3.471 3.561-3.446 3.446 1.232 3.436 3.561zM24.535 336.134c-.055 2.284-1.282 3.441-3.606 3.391-2.234-.045-3.431-1.322-3.391-3.611s1.272-3.431 3.611-3.396 3.441 1.282 3.386 3.616z"/>
</svg>
