<svg xmlns="http://www.w3.org/2000/svg" viewBox="0 0 640 640">
  <path d="M320 0C143.269 0 0 143.269 0 320s143.269 320 320 320 320-143.269 320-320S496.731 0 320 0zm0 576C178.615 576 64 461.385 64 320S178.615 64 320 64s256 114.615 256 256-114.615 256-256 256zm-78.222-427.377v.071c0 18.184-14.741 32.924-32.924 32.924s-32.924-14.741-32.924-32.924c0-18.184 14.741-32.924 32.924-32.924h.075-.004c18.096.12 32.733 14.757 32.853 32.842v.011zm-60.445 82.488h54.969V426.24h-54.969zm225.778-6.329a72.853 72.853 0 0 0-2.066-.028c-25.229 0-47.569 12.372-61.284 31.379l-.153.222v-25.244h-54.969v299.662h54.969V400.996c13.489 19.159 35.513 31.522 60.423 31.522.607 0 1.214-.007 1.818-.022l-.089.002c57.671 0 97.351-44.587 97.351-104.036s-38.329-103.68-96-103.68zM392.249 384a68.75 68.75 0 0 1-.677.004c-29.494 0-53.404-23.91-53.404-53.404a54 54 0 0 1 .041-2.096l-.003.1a53.56 53.56 0 0 1-.036-1.961c0-29.887 24.228-54.116 54.116-54.116s54.116 24.228 54.116 54.116c0 .69-.013 1.376-.039 2.06l.003-.099c.024.596.037 1.294.037 1.996 0 29.494-23.91 53.404-53.404 53.404-.263 0-.526-.002-.788-.006l.039.001z"/>
</svg>
